<?xml version="1.0" encoding="UTF-8" standalone="no"?>
<svg width="413px" height="224px" viewBox="0 0 413 224" version="1.1" xmlns="http://www.w3.org/2000/svg" xmlns:xlink="http://www.w3.org/1999/xlink">
    <!-- Generator: Sketch 3.6.1 (26313) - http://www.bohemiancoding.com/sketch -->
    <title>unicorn</title>
    <desc>Created with Sketch.</desc>
    <defs></defs>
    <g id="Page-1" stroke="none" stroke-width="1" fill="none" fill-rule="evenodd">
        <g id="group3-2" transform="translate(261.517000, 26.899700)" stroke="#000000" fill="#FFFFFF">
            <g id="shape4-3" transform="translate(39.000000, 1.000000)" stroke-width="3.12">
                <path d="M42.65,164.33 C45.8570128,163.059448 48.5379948,160.81303 50.3,157.92 C49.4995311,158.230224 48.6736138,158.477665 47.83,158.66 C51.2068661,157.410471 54.0569268,155.047178 55.91,151.96 C50.2641235,154.261057 43.8001874,153.139089 39.26,149.07 C32.007409,141.117629 28.9311733,130.209964 30.96,119.64 C32.5611977,112.443985 30.2049754,106.06624 24.31,101.64 C22.7172424,100.068176 20.3246955,99.631495 18.2793621,100.539305 C16.2340287,101.447115 14.9528375,103.514364 15.05,105.75 C13.1927155,105.087164 11.1365915,105.409121 9.6277172,106.599046 C8.11884294,107.788971 7.37647861,109.673952 7.67,111.57 C5.21160104,111.052518 2.73517756,112.174083 1.59856026,114.319738 C0.46194296,116.465393 0.939750698,119.116725 2.77,120.82 C5.82336892,123.23561 7.54014979,126.899562 7.39,130.68 C5.86696535,143.200084 9.5004379,155.911847 17.5,166.05 C20.9966262,169.875175 26.1186224,171.892154 31.2926867,171.481388 C36.4667509,171.070623 41.0742805,168.281224 43.7,163.97 C43.3545807,164.10168 43.0043771,164.221749 42.65,164.33 L42.65,164.33 Z M26.46,49.82 C24.6970556,53.1528231 25.162578,57.2636223 27.64,60.24 C27.4511347,60.4190618 27.2772611,60.6129977 27.12,60.82 C26.655944,60.2445671 26.1892722,59.6712275 25.72,59.1 C19.2200821,63.4272417 17.3652682,72.1795079 21.49,79.06 C19.0902605,81.9712036 18.7193469,86.0946588 20.55,89.51 C18.3506192,90.8979654 17.6512686,93.7871575 18.95,96.12 C37.3015802,106.128561 47.4477322,126.671388 44.06,146.96 C45.8188526,144.384525 47.1928003,141.559177 48.14,138.57 C49.8674363,135.734259 51.1454361,132.638734 51.93,129.39 C51.8990085,129.807312 51.8623384,130.224018 51.82,130.64 C57.7832937,119.472695 57.1560001,105.771683 50.18,94.82 C45.2634093,86.0644874 39.8057729,77.6141691 33.84,69.52 C50.5373139,77.3091739 61.5508943,93.7170026 62.22,111.8 C63.4287313,108.923695 64.210002,105.879433 64.54,102.76 C65.660196,99.6327634 66.2873996,96.3416309 66.4,93 C66.452386,93.4161734 66.499057,93.8328787 66.54,94.25 C70.1389712,82.1129059 66.7730228,68.8174095 57.74,59.49 C49.9111725,50.4595122 41.4203497,42.0088035 32.34,34.21 C47.0948507,37.7082673 58.8222596,48.8815953 63.03,63.45 C63.4358233,60.681936 63.4425586,57.8699763 63.05,55.1 C63.3271703,52.1407116 63.1518248,49.1564661 62.53,46.25 C62.6613563,46.5949351 62.7880346,46.9416336 62.91,47.29 C63.3459169,35.9794931 57.6357042,25.3163497 47.98,19.41 C37.6143915,12.2360967 26.615398,6.02364017 15.12,0.85 C11.6562539,6.93011689 13.5330065,14.6563738 19.4,18.47 C18.6206398,21.7613099 19.8991066,25.1981759 22.64,27.18 C21.4380593,29.1798291 21.9935392,31.7691523 23.91,33.1 C21.232173,38.5703076 22.2427182,45.1963142 26.46,49.82 L26.46,49.82 Z" id="path21"></path>
            </g>
            <g id="group5-5" transform="translate(73.851743, 91.821783) rotate(20.000000) translate(-73.851743, -91.821783) translate(24.351743, 12.821783)" stroke-width="1.2">
                <g id="group6-6" transform="translate(53.790056, 90.636277) rotate(26.400000) translate(-53.790056, -90.636277) translate(15.290056, 66.636277)">
                    <g id="shape7-7" transform="translate(0.000000, 0.122800)">
                        <path d="M70.01,30.53 C66.0358136,18.5149425 55.686416,9.52328189 42.95,7.02 C28.9531745,3.45537907 14.6504899,1.13910064 0.22,0.1 C-0.566094001,4.59167446 0.831832395,9.18385676 4.00643016,12.5384071 C7.18102793,15.8929574 11.7751163,17.6324481 16.45,17.25 C35.3786108,9.91252652 57.0199908,15.2784251 70.01,30.53 L70.01,30.53 Z" id="path32"></path>
                    </g>
                    <g id="shape8-9" transform="translate(10.680800, 11.898650)">
                        <path d="M62.94,28.53 C60.0441326,14.9420716 48.6147188,4.61989476 34.45,2.8 C23.7056487,0.473808588 12.6623417,-0.271176407 1.69,0.59 C0.582560773,3.26973334 0.815002059,6.29641334 2.31950587,8.78696386 C3.82400968,11.2775144 6.43105501,12.9513109 9.38,13.32 C28.7401593,6.5581296 50.3812207,12.7037708 62.94,28.53 L62.94,28.53 Z" id="path37"></path>
                    </g>
                    <g id="shape9-11" transform="translate(17.569600, 21.000000)">
                        <path d="M58.92,26.53 C56.0241326,12.9420716 44.5947188,2.61989476 30.43,0.8 C20.8046362,0.501432282 11.1713056,1.05707261 1.65,2.46 C0.876785556,3.79357767 0.783891351,5.3999353 1.39848943,6.80920477 C2.01308751,8.21847425 3.26572544,9.2714016 4.79,9.66 C24.6911573,3.27259973 46.5625226,10.0889665 58.92,26.53 L58.92,26.53 Z" id="path42"></path>
                    </g>
                </g>
                <g id="group10-13" transform="translate(51.678774, 56.895380) rotate(14.800000) translate(-51.678774, -56.895380) translate(13.178774, 32.895380)">
                    <g id="shape11-14" transform="translate(0.000000, 0.122800)">
                        <path d="M70.01,30.53 C66.0358136,18.5149425 55.686416,9.52328189 42.95,7.02 C28.9531745,3.45537907 14.6504899,1.13910064 0.22,0.1 C-0.566094001,4.59167446 0.831832395,9.18385676 4.00643016,12.5384071 C7.18102793,15.8929574 11.7751163,17.6324481 16.45,17.25 C35.3786108,9.91252652 57.0199908,15.2784251 70.01,30.53 L70.01,30.53 Z" id="path50"></path>
                    </g>
                    <g id="shape12-16" transform="translate(10.680800, 11.898650)">
                        <path d="M62.94,28.53 C60.0441326,14.9420716 48.6147188,4.61989476 34.45,2.8 C23.7056487,0.473808588 12.6623417,-0.271176407 1.69,0.59 C0.582560773,3.26973334 0.815002059,6.29641334 2.31950587,8.78696386 C3.82400968,11.2775144 6.43105501,12.9513109 9.38,13.32 C28.7401593,6.5581296 50.3812207,12.7037708 62.94,28.53 L62.94,28.53 Z" id="path55"></path>
                    </g>
                    <g id="shape13-18" transform="translate(17.569600, 21.000000)">
                        <path d="M58.92,26.53 C56.0241326,12.9420716 44.5947188,2.61989476 30.43,0.8 C20.8046362,0.501432282 11.1713056,1.05707261 1.65,2.46 C0.876785556,3.79357767 0.783891351,5.3999353 1.39848943,6.80920477 C2.01308751,8.21847425 3.26572544,9.2714016 4.79,9.66 C24.6911573,3.27259973 46.5625226,10.0889665 58.92,26.53 L58.92,26.53 Z" id="path60"></path>
                    </g>
                </g>
                <g id="group14-20" transform="translate(0.000000, 0.101000)">
                    <g id="shape15-21" transform="translate(0.000000, 0.863200)">
                        <path d="M60.98,27.53 C57.5196784,16.7520774 48.5047827,8.68571544 37.41,6.44 C25.2178556,3.2449999 12.759488,1.16972104 0.19,0.24 C-0.49438364,4.26893559 0.723892395,8.38783277 3.48976785,11.3962602 C6.25564331,14.4046877 10.2578627,15.9640947 14.33,15.62 C30.8165006,9.0395011 49.6656575,13.8517939 60.98,27.53 L60.98,27.53 Z" id="path68"></path>
                    </g>
                    <g id="shape16-23" transform="translate(9.174000, 11.630940)">
                        <path d="M54.95,25.53 C52.4257849,13.3474078 42.4736789,4.09327289 30.14,2.46 C20.7801114,0.370428652 11.1593049,-0.300398433 1.6,0.47 C0.634332101,2.87399978 0.836495519,5.58969734 2.14746668,7.82421832 C3.45843783,10.0587393 5.7303883,11.5601135 8.3,11.89 C25.1621617,5.8255668 44.0109778,11.3367748 54.95,25.53 L54.95,25.53 Z" id="path73"></path>
                    </g>
                    <g id="shape17-25" transform="translate(16.174200, 20.000000)">
                        <path d="M50.44,23.53 C47.9157849,11.3474078 37.9636789,2.09327289 25.63,0.46 C17.2487299,0.193062941 8.86058947,0.691799146 0.57,1.95 C-0.100544521,3.14478307 -0.180447793,4.58261986 0.353584068,5.84434349 C0.887615929,7.10606712 1.97546687,8.04964514 3.3,8.4 C20.6316915,2.67477037 39.6775417,8.78770447 50.44,23.53 L50.44,23.53 Z" id="path78"></path>
                    </g>
                </g>
                <g id="group18-27" transform="translate(26.254100, 91.000000)">
                    <g id="shape19-28" transform="translate(0.000000, 16.000000)">
                        <path d="M7.99,1.23 C15.296249,3.37357738 19.8491941,8.56074595 20.84,15.87 C22.6092696,26.4977916 29.4697991,35.6970537 39.35,40.69 C45.2111856,42.9586866 51.8997351,41.8018743 56.58,37.71 C55.5885433,42.6605039 52.2131766,46.8591414 47.4910487,49.0157971 C42.7689207,51.1724527 37.2648231,51.0291791 32.67,48.63 C21.6842912,41.8395087 13.9213123,31.1366611 11.07,18.85 C9.92021342,15.2451811 7.05513788,12.3875377 3.36,11.16 C1.52216034,10.3617388 0.265162958,8.67779136 0.0625066374,6.74248431 C-0.140149683,4.80717725 0.742323378,2.91452984 2.37750673,1.7774841 C4.01269009,0.640438359 6.15216046,0.431738596 7.99,1.23 L7.99,1.23 Z" id="path86"></path>
                    </g>
                    <g id="shape20-30" transform="translate(9.332330, 0.537300)">
                        <path d="M7.71,1.23 C14.7607003,3.37432297 19.1541576,8.5614371 20.11,15.87 C21.818668,26.4987276 28.4421231,35.6981766 37.98,40.69 C43.6370725,42.9587533 50.0927266,41.8019373 54.61,37.71 C53.6533852,42.6613586 50.3951351,46.8607796 45.8366908,49.0175479 C41.2782464,51.1743161 35.9649974,51.0303878 31.53,48.63 C20.9260493,41.8399642 13.4325744,31.1370538 10.68,18.85 C9.570557,15.2455042 6.80587446,12.3879224 3.24,11.16 C1.46617621,10.3615115 0.253084024,8.67735392 0.0576835515,6.74193319 C-0.137716921,4.80651247 0.714260309,2.91386507 2.29268364,1.776933 C3.87110697,0.640000938 5.93617632,0.431511253 7.71,1.23 L7.71,1.23 Z" id="path91"></path>
                    </g>
                    <g id="shape21-32" transform="translate(4.135750, 8.059360)">
                        <path d="M7.99,1.23 C15.296249,3.37357738 19.8491941,8.56074595 20.84,15.87 C22.6092696,26.4977916 29.4697991,35.6970537 39.35,40.69 C45.2111856,42.9586866 51.8997351,41.8018743 56.58,37.71 C55.5885433,42.6605039 52.2131766,46.8591414 47.4910487,49.0157971 C42.7689207,51.1724527 37.2648231,51.0291791 32.67,48.63 C21.6842912,41.8395087 13.9213123,31.1366611 11.07,18.85 C9.92021342,15.2451811 7.05513788,12.3875377 3.36,11.16 C1.52216034,10.3617388 0.265162958,8.67779136 0.0625066374,6.74248431 C-0.140149683,4.80717725 0.742323378,2.91452984 2.37750673,1.7774841 C4.01269009,0.640438359 6.15216046,0.431738596 7.99,1.23 L7.99,1.23 Z" id="path96"></path>
                    </g>
                </g>
            </g>
        </g>
        <g id="shape22-34" transform="translate(293.258272, 20.164145) rotate(3.500000) translate(-293.258272, -20.164145) translate(282.758272, 6.664145)" stroke="#000000" stroke-width="2.16" fill="#FFFFFF">
            <path d="M1.49,26.53 C-0.196833829,17.5284005 2.49931674,8.35146309 9.02,0.9 C8.87824816,2.94626374 9.53538056,4.97708248 10.9,6.71 C15.7936418,11.5673106 19.032415,17.3592019 20.3,23.52 L1.49,26.53 L1.49,26.53 Z" id="path101"></path>
        </g>
        <g id="shape23-36" transform="translate(126.695671, 118.389097) rotate(11.700000) translate(-126.695671, -118.389097) translate(19.195671, 70.889097)" stroke="#000000" stroke-width="2.16" fill="#FFFFFF">
            <path d="M199.12,51.77 C191.799159,51.9058941 184.653801,49.5229313 178.88,45.02 C170.952436,36.9044762 159.801245,32.7750854 148.5,33.77 C136.205576,29.5882615 126.082991,20.6819696 120.37,9.02 C117.640153,4.52634744 113.087853,1.4451314 107.901542,0.580746289 C102.715232,-0.283638823 97.4096889,1.15460348 93.37,4.52 C78.8941102,15.0542901 61.7410523,21.2930261 43.88,22.52 C36.7306386,20.8095866 29.2428442,23.4516468 24.75,29.27 C21.7944421,27.8142017 18.3501522,27.7232711 15.3218976,29.0210945 C12.293643,30.3189179 9.98411702,32.8757695 9,36.02 C5.5648697,41.0091021 2.5543141,46.2775744 0,51.77 L6.75,54.02 L20.25,36.02 L2.25,60.77 C10.6355359,64.5426182 20.4791,62.7528793 27,56.27 L29.25,36.02 L33.75,33.77 C32.4580923,36.5966589 32.6206639,39.8748761 34.1859013,42.5598449 C35.7511387,45.2448138 38.5237235,47.00149 41.62,47.27 C44.495809,49.2824398 46.2988278,52.4948202 46.5187457,55.9979371 C46.7386636,59.5010539 45.3515495,62.9137038 42.75,65.27 C47.4795274,66.6049349 52.5224845,64.6573708 55.1270657,60.490041 C57.7316468,56.3227112 57.272431,50.9362891 54,47.27 C49.4370329,44.7604769 46.4696946,40.0964394 46.13,34.9 C48.7168149,38.5167476 52.924513,40.6205967 57.37,40.52 C61.2766985,42.6730646 63.9570286,46.5235912 64.6196918,50.9348107 C65.282355,55.3460302 63.8516664,59.8141232 60.75,63.02 C66.2631691,62.86074 71.2230988,59.6282288 73.5947932,54.6487245 C75.9664877,49.6692203 75.3506691,43.7810289 72,39.4 C69.2231113,38.2225523 67.6333552,35.2775373 68.1726995,32.3099454 C68.7120437,29.3423534 71.2363883,27.1450547 74.25,27.02 C83.2022412,27.6530444 92.0574864,24.8372553 99,19.15 C102.322734,24.5587981 108.42962,27.6103023 114.75,27.02 C126.344937,62.0133259 156.106045,87.8942173 192.37,94.52 C203.356933,94.8648206 212.883489,86.9795997 214.597883,76.121771 C216.312277,65.2639424 209.678675,54.8271175 199.12,51.77 L199.12,51.77 Z" id="path106"></path>
        </g>
        <g id="shape24-38" transform="translate(156.854000, 30.090350)" stroke="#000000" stroke-width="2.16" fill="#FFFFFF">
            <path d="M123.05,58.78 C114.813588,83.8525266 90.9171018,100.396248 64.55,99.28 C42.9875552,100.892309 23.3922492,112.414085 11.500001,130.472684 C-0.392247104,148.531283 -3.23642957,171.084286 3.8,191.53 L138.8,191.53 C136.650089,157.641954 149.872102,124.586922 174.8,101.53 C187.848137,85.4288777 192.40807,64.0581102 187.06817,44.0334879 C181.728271,24.0088655 167.132761,7.74621618 147.8,0.28 C135.054038,2.32612687 124.258749,10.7888682 119.228828,22.6777733 C114.198906,34.5666784 115.642692,48.20749 123.05,58.78 L123.05,58.78 Z" id="path111"></path>
        </g>
        <g id="shape25-40" transform="translate(2.000000, 126.538600)" stroke="#000000" stroke-width="2.16" fill="#FFFFFF">
            <path d="M199.12,51.77 C191.799159,51.9058941 184.653801,49.5229313 178.88,45.02 C170.952436,36.9044762 159.801245,32.7750854 148.5,33.77 C136.205576,29.5882615 126.082991,20.6819696 120.37,9.02 C117.640153,4.52634744 113.087853,1.4451314 107.901542,0.580746289 C102.715232,-0.283638823 97.4096889,1.15460348 93.37,4.52 C78.8941102,15.0542901 61.7410523,21.2930261 43.88,22.52 C36.7306386,20.8095866 29.2428442,23.4516468 24.75,29.27 C21.7944421,27.8142017 18.3501522,27.7232711 15.3218976,29.0210945 C12.293643,30.3189179 9.98411702,32.8757695 9,36.02 C5.5648697,41.0091021 2.5543141,46.2775744 0,51.77 L6.75,54.02 L20.25,36.02 L2.25,60.77 C10.6355359,64.5426182 20.4791,62.7528793 27,56.27 L29.25,36.02 L33.75,33.77 C32.4580923,36.5966589 32.6206639,39.8748761 34.1859013,42.5598449 C35.7511387,45.2448138 38.5237235,47.00149 41.62,47.27 C44.495809,49.2824398 46.2988278,52.4948202 46.5187457,55.9979371 C46.7386636,59.5010539 45.3515495,62.9137038 42.75,65.27 C47.4795274,66.6049349 52.5224845,64.6573708 55.1270657,60.490041 C57.7316468,56.3227112 57.272431,50.9362891 54,47.27 C49.4370329,44.7604769 46.4696946,40.0964394 46.13,34.9 C48.7168149,38.5167476 52.924513,40.6205967 57.37,40.52 C61.2766985,42.6730646 63.9570286,46.5235912 64.6196918,50.9348107 C65.282355,55.3460302 63.8516664,59.8141232 60.75,63.02 C66.2631691,62.86074 71.2230988,59.6282288 73.5947932,54.6487245 C75.9664877,49.6692203 75.3506691,43.7810289 72,39.4 C69.2231113,38.2225523 67.6333552,35.2775373 68.1726995,32.3099454 C68.7120437,29.3423534 71.2363883,27.1450547 74.25,27.02 C83.2022412,27.6530444 92.0574864,24.8372553 99,19.15 C102.322734,24.5587981 108.42962,27.6103023 114.75,27.02 C126.344937,62.0133259 156.106045,87.8942173 192.37,94.52 C203.356933,94.8648206 212.883489,86.9795997 214.597883,76.121771 C216.312277,65.2639424 209.678675,54.8271175 199.12,51.77 L199.12,51.77 Z" id="path116"></path>
        </g>
        <g id="group26-42" transform="translate(181.479359, 35.393223) rotate(3.000000) translate(-181.479359, -35.393223) translate(60.479359, 13.393223)">
            <g id="shape27-43">
                <path d="M15.31,2.59 L15.59,2.12 C15.613274,1.97558395 15.5787238,1.82876967 15.4940974,1.71248064 C15.4094709,1.5961916 15.28185,1.52015924 15.139854,1.501434 L0,0.73 L14.54,3.14 L14.57,3.06 C14.7657269,3.13172589 14.9765309,3.08804607 15.099435,2.950298 L15.31,2.59 L15.31,2.59 Z M16.62,2.72 L16.92,2.22 C16.9620482,1.95907599 16.8436371,1.70139194 16.6212538,1.56987431 C16.3988706,1.43835668 16.1175681,1.45964983 15.91154,1.623596 L15.61,2.13 L15.33,2.6 C15.2346954,2.83847662 15.3500882,3.12427616 15.6017772,3.27312522 C15.8534662,3.42197427 16.1662514,3.38939952 16.33846,3.196404 L16.62,2.72 L16.62,2.72 Z M18.01,2.97 L18.39,2.32 C18.4360534,2.03424879 18.3063765,1.75204388 18.0628324,1.60801281 C17.8192883,1.46398174 17.5112187,1.48730497 17.28559,1.666856 L16.95,2.24 L16.65,2.74 C16.5456147,3.00116754 16.6719848,3.31416956 16.9476276,3.47718367 C17.2232704,3.64019778 17.5658234,3.60451524 17.75441,3.393144 L18.01,2.97 L18.01,2.97 Z M19.54,3.1 C19.4170051,3.40773666 19.5659092,3.77654799 19.8907005,3.96862874 C20.2154919,4.16070949 20.6191242,4.11866667 20.84134,3.869609 L21.05,3.51 C21.0137598,3.8461492 21.2275754,4.18727232 21.5733356,4.34493377 C21.9190958,4.50259522 22.312458,4.4383361 22.53613,4.187653 L22.87,3.62 C22.8234017,3.97032749 23.0415036,4.33093655 23.4020008,4.49960825 C23.7624979,4.66827995 24.1757305,4.60306376 24.40997,4.340531 L24.62,3.98 C24.6266406,4.35144022 24.8884987,4.70288013 25.2719629,4.85499987 C25.6554271,5.0071196 26.0759651,4.92638526 26.319,4.653991 L26.74,3.95 L27.27,3.06 C27.3444602,2.63117788 27.1522267,2.20483981 26.7864586,1.98759576 C26.4206906,1.77035171 25.9569609,1.80708734 25.62,2.08 L25.28,2.67 C25.2549078,2.32074382 25.0432058,2.01709085 24.7286049,1.87911111 C24.414004,1.74113137 24.0471601,1.79104184 23.77313,2.009107 L23.37,2.67 C23.3846854,2.31312021 23.1951228,1.98358116 22.883674,1.82456215 C22.5722252,1.66554315 22.1951105,1.70574903 21.91618,1.927711 L21.59,2.49 C21.5955547,2.1715982 21.4214832,1.88135729 21.1419692,1.74296843 C20.8624552,1.60457958 20.5267771,1.64244084 20.27799,1.840417 L19.87,2.52 C19.9212118,2.21399755 19.7830326,1.91082301 19.5219901,1.75644237 C19.2609476,1.60206173 18.930538,1.62811278 18.68984,1.822053 L18.4,2.33 L18.01,2.98 C17.8977194,3.26092945 18.0336524,3.59761336 18.3301512,3.77296187 C18.6266499,3.94831038 18.9951216,3.90993002 19.19798,3.682568 L19.54,3.1 L19.54,3.1 L19.54,3.1 Z M28.97,4.21 L29.51,3.29 C29.5785753,2.83876368 29.3717811,2.39532845 28.9872201,2.16898685 C28.6026592,1.94264526 28.117212,1.97864701 27.76,2.26 L27.28,3.07 L26.76,3.96 C26.5943599,4.37450108 26.7949312,4.8712488 27.2323956,5.12996532 C27.6698599,5.38868184 28.2135152,5.33206989 28.51284,4.99663 L28.97,4.21 L28.97,4.21 Z M31.33,4.77 C31.2580593,5.25897378 31.5383577,5.74679866 32.0146874,5.96161399 C32.491017,6.17642931 33.0458571,6.06523553 33.37,5.69 L33.84,4.89 L34.59,3.64 C34.6974271,3.09349362 34.4786157,2.56162216 34.0396423,2.30222882 C33.600669,2.04283548 33.0322714,2.10953799 32.61,2.47 L32.11,3.32 C32.1294934,2.83182938 31.8693604,2.38149769 31.4428258,2.16501535 C31.0162913,1.948533 30.5005179,2.00506292 30.12,2.31 L29.53,3.31 L28.99,4.22 C28.7974258,4.68893189 29.0246005,5.2545216 29.5227478,5.54636547 C30.0208951,5.83820934 30.6380334,5.76726766 30.97,5.38 L31.33,4.77 L31.33,4.77 Z M36.51,5.17 L37.22,3.97 C37.324335,3.40166059 37.0935515,2.85241452 36.6374628,2.58360858 C36.181374,2.31480264 35.5920865,2.38072185 35.15,2.75 L34.61,3.65 L33.87,4.91 C33.6455674,5.4351625 33.8647396,6.05407546 34.3845176,6.36292903 C34.9042955,6.6717826 35.5668938,6.57682018 35.94,6.14 L36.51,5.17 L36.51,5.17 Z M39.35,5.48 L40.13,4.16 C40.2389834,3.54885471 39.9900961,2.95972538 39.5004883,2.66991267 C39.0108805,2.38009996 38.3781024,2.44734664 37.9,2.84 L37.22,3.98 L36.51,5.17 C36.2660834,5.73843204 36.5031654,6.40903425 37.0662391,6.74335927 C37.6293128,7.07768428 38.3469707,6.97395891 38.75,6.5 L39.35,5.48 L39.35,5.48 Z M42.4,5.87 L43.28,4.39 C43.4049338,3.7241067 43.1369463,3.07888592 42.6036325,2.76154219 C42.0703187,2.44419846 41.3794639,2.51886843 40.86,2.95 L40.14,4.16 L39.36,5.48 C39.1073943,6.09266491 39.3654631,6.8082902 39.9683854,7.16705387 C40.5713077,7.52581755 41.3397699,7.42102066 41.78,6.92 L42.4,5.87 L42.4,5.87 Z M45.76,6.23 L46.66,4.71 C46.7947028,3.99192713 46.5054053,3.29622695 45.9300052,2.95451423 C45.3546051,2.61280151 44.6095578,2.69423566 44.05,3.16 L43.32,4.41 L42.44,5.89 C42.1667907,6.55088131 42.4453666,7.32332239 43.0963413,7.70991652 C43.7473159,8.09651065 44.5765222,7.98194792 45.05,7.44 L45.76,6.23 L45.76,6.23 Z M49.44,6.67 L50.47,4.92 C50.6206378,4.11943721 50.2974925,3.34377632 49.6551684,2.9641208 C49.0128442,2.58446529 48.1819441,2.67801006 47.56,3.2 L46.67,4.71 L45.77,6.24 C45.476498,6.97294658 45.788475,7.82308466 46.5074304,8.2494996 C47.2263858,8.67591454 48.1412816,8.55343896 48.67,7.96 L49.44,6.67 L49.44,6.67 Z M53.27,7.18 L54.37,5.34 C54.5285193,4.50850274 54.1932088,3.70192927 53.525381,3.30830893 C52.8575533,2.91468859 51.9939354,3.01460897 51.35,3.56 L50.53,4.96 L49.5,6.7 C49.1873917,7.46188287 49.5102067,8.35073265 50.2607039,8.79454826 C51.0112011,9.23836388 51.9657202,9.10488108 52.51,8.48 L53.27,7.18 L53.27,7.18 Z M57.41,7.87 C57.1870098,8.75846812 57.6431486,9.70109803 58.5082885,10.1396592 C59.3734284,10.5782205 60.4165869,10.3956221 61.02,9.7 L61.87,8.26 C61.5352568,9.26347653 62.0060827,10.3816854 62.9894768,10.918751 C63.9728709,11.4558166 65.1885578,11.2586708 65.88,10.45 L66.95,8.64 L68.32,6.33 C68.5247115,5.24309967 68.0865821,4.18978203 67.2150053,3.67345557 C66.3434286,3.15712911 65.2153864,3.28263871 64.37,3.99 L63.21,5.94 C63.3561483,4.98485434 62.9498217,4.07804338 62.179028,3.63914949 C61.4082342,3.2002556 60.4233176,3.31488558 59.68,3.93 L58.72,5.55 C58.8280645,4.65854777 58.4280034,3.82828046 57.7011721,3.43557461 C56.9743408,3.04286876 56.058964,3.16240689 55.37,3.74 L54.41,5.36 L53.32,7.21 C52.985152,8.0489812 53.3437719,9.02132288 54.1673853,9.5075525 C54.9909987,9.99378212 56.0374281,9.85092734 56.64,9.17 L57.41,7.87 L57.41,7.87 Z M68.34,6.34 L66.97,8.66 C66.5334757,9.6968945 66.9707883,10.9142537 67.9970239,11.5189549 C69.0232594,12.123656 70.327492,11.9324885 71.06,11.07 L73.57,6.81 C73.7772429,5.68906674 73.3231705,4.60491459 72.4239995,4.07378661 C71.5248284,3.54265864 70.3623088,3.67191206 69.49,4.4 L68.34,6.34 L68.34,6.34 Z M83.85,10.96 C83.3909925,12.2744322 83.9929286,13.7530808 85.279991,14.472755 C86.5670533,15.1924291 88.1708272,14.947126 89.09,13.89 L90.41,11.66 L92.29,8.47 C92.5527201,7.04458702 91.9744336,5.66649985 90.8305596,4.99207704 C89.6866857,4.31765424 88.2084941,4.48325143 87.1,5.41 L85.67,7.83 C85.9265106,6.49123575 85.3876886,5.19180946 84.3128447,4.55707658 C83.2380009,3.92234369 81.8472905,4.08231361 80.81,4.96 L79.58,7.04 C79.6916838,5.82662592 79.1238738,4.7151916 78.1272858,4.19644925 C77.1306978,3.67770689 75.8888193,3.84716516 74.95,4.63 L72.12,9.42 C71.6346344,10.5829363 72.1242832,11.9453613 73.2720471,12.6255177 C74.419811,13.3056741 75.8810267,13.0993169 76.71,12.14 L77.66,10.53 C77.4168237,11.7502318 78.0788131,13.0058004 79.2657948,13.5756462 C80.4527766,14.1454921 81.8602837,13.8834467 82.68,12.94 L83.85,10.96 L83.85,10.96 Z M97.34,12.93 C96.948313,14.4601438 97.7301233,16.0883292 99.2207661,16.8468527 C100.711409,17.6053763 102.511016,17.2907623 103.55,16.09 L105.3,13.14 L107.3,9.75 C107.609273,8.08212651 106.933472,6.46864961 105.59496,5.67921432 C104.256448,4.88977904 102.526374,5.08430447 101.23,6.17 L99.63,8.87 C99.8149768,7.35512182 99.1362353,5.94343393 97.9015719,5.27510995 C96.6669084,4.60678597 95.1112272,4.80897965 93.94,5.79 L92.34,8.5 L90.46,11.69 C89.8806987,13.1166626 90.486315,14.7769078 91.8890441,15.607602 C93.2917732,16.4382962 95.0763392,16.1935136 96.1,15.03 L97.34,12.93 L97.34,12.93 Z M107.31,9.76 L105.31,13.15 C104.627455,14.8106774 105.331995,16.7488823 106.969311,17.7147986 C108.606626,18.680715 110.68745,18.3857048 111.87,17.02 L115.92,10.18 C116.25977,8.3751581 115.531569,6.62631141 114.083705,5.7699527 C112.635841,4.913594 110.76261,5.12378936 109.36,6.3 L107.31,9.76 L107.31,9.76 Z M132.1,16.38 C131.240055,18.4686328 132.12401,20.9073788 134.18231,22.1248944 C136.24061,23.3424101 138.858835,22.9752567 140.35,21.26 L145.45,12.65 C145.872709,10.3818716 144.955934,8.18628941 143.136867,7.11028402 C141.317801,6.03427863 138.964814,6.29574703 137.2,7.77 L134.69,12 C135.08524,9.88801221 134.231946,7.84281098 132.53768,6.84125247 C130.843413,5.83969396 128.651948,6.08499831 127.01,7.46 L124.97,10.92 C125.234403,9.02584707 124.409256,7.24226972 122.873494,6.38834225 C121.337731,5.53441477 119.388127,5.77515204 117.92,7 L113.58,14.33 C112.839915,16.10838 113.590625,18.1903164 115.346188,19.2281487 C117.10175,20.265981 119.334859,19.9479837 120.6,18.48 L122.13,15.89 C121.566305,17.8305792 122.517723,19.9385963 124.409223,20.9399789 C126.300723,21.9413614 128.613615,21.5615081 129.95,20.03 L132.11,16.39 L132.1,16.38 L132.1,16.38 Z M165.89,21.29 L169.92,14.47 C170.424976,11.7719373 169.335978,9.15890581 167.172587,7.8776314 C165.009196,6.59635698 162.209783,6.90646613 160.11,8.66 L157.27,13.46 C157.669794,10.9828481 156.62695,8.62022711 154.628997,7.47666205 C152.631044,6.333097 150.072704,6.63451374 148.15,8.24 L142.53,17.73 C141.57029,20.0353514 142.54331,22.7344333 144.819151,24.0799308 C147.094993,25.4254283 149.989991,25.0131525 151.63,23.11 L153.93,19.21 C153.080614,21.6977947 154.232264,24.4833421 156.667956,25.8324161 C159.103647,27.1814902 162.128794,26.709375 163.86,24.71 L165.89,21.29 L165.89,21.29 Z M178.72,23.24 L183.73,14.77 C183.995572,12.6849255 182.577052,10.3249592 180.222051,8.93388658 C177.867049,7.54281394 175.116484,7.44014908 173.42,8.68 L169.98,14.5 L165.94,21.32 C165.232933,23.4357076 166.60084,26.1098981 169.16668,27.627999 C171.732519,29.1460999 174.735396,29.0579216 176.25,27.42 L178.72,23.24 L178.72,23.24 Z M191.5,25.21 L197.31,15.38 C197.678805,13.1207132 196.33037,10.6424739 193.975369,9.25140138 C191.620368,7.86032885 188.799717,7.87593709 187,9.29 L183.75,14.79 L178.74,23.26 C177.927807,25.5720583 179.213364,28.3828721 181.775068,29.8960414 C184.336771,31.4092106 187.418199,31.177925 189.05,29.35 L191.5,25.21 L191.5,25.21 Z M197.33,15.4 L191.52,25.22 C190.599743,27.7066898 191.826953,30.6626812 194.414945,32.1930803 C197.002937,33.7234793 200.18444,33.3745635 201.92,31.37 L210.86,16.24 C211.306294,13.8283526 210.001509,11.2430399 207.631109,9.84224499 C205.260708,8.44145012 202.366927,8.54560811 200.47,10.1 L197.33,15.4 L197.33,15.4 Z M224.3,17.06 C224.704788,14.5681504 223.404761,12.0033094 221.065673,10.6789565 C218.726585,9.35460347 215.866462,9.56403533 213.95,11.2 L204.55,27.08 C203.558274,29.6773481 204.716694,32.705987 207.282533,34.2240879 C209.848373,35.7421887 213.060737,35.2995618 214.86,33.18 L217.07,29.44 C216.522626,31.312383 217.037034,33.3892992 218.430602,34.9334137 C219.82417,36.4775282 221.899568,37.2701927 223.92,37.03 C223.676407,39.6716996 226.555075,42.1123096 230.36,42.49 C232.347848,42.687751 234.298305,42.282025 235.713121,41.3764659 C237.127938,40.4709068 237.870093,39.1532155 237.75,37.76 L240.07,14.53 C240.46432,13.1876045 239.997736,11.748441 238.789536,10.5804505 C237.581336,9.41245996 235.74864,8.62886432 233.76,8.43 C231.770343,8.23003395 229.816996,8.63474466 228.39987,9.54055627 C226.982744,10.4463679 226.239371,11.7653714 226.36,13.16 L226.31,13.65 L224.3,17.06 L224.3,17.06 Z" id="path124" fill="#FFFFFF"></path>
                <path d="M15.31,2.59 L15.59,2.12 C15.613274,1.97558395 15.5787238,1.82876967 15.4940974,1.71248064 C15.4094709,1.5961916 15.28185,1.52015924 15.139854,1.501434 L0,0.73 L14.54,3.14 L14.57,3.06 C14.7657269,3.13172589 14.9765309,3.08804607 15.099435,2.950298 L15.31,2.59 M16.62,2.72 L16.92,2.22 C16.9620482,1.95907599 16.8436371,1.70139194 16.6212538,1.56987431 C16.3988706,1.43835668 16.1175681,1.45964983 15.91154,1.623596 L15.61,2.13 L15.33,2.6 C15.2346954,2.83847662 15.3500882,3.12427616 15.6017772,3.27312522 C15.8534662,3.42197427 16.1662514,3.38939952 16.33846,3.196404 L16.62,2.72 M18.01,2.97 L18.39,2.32 C18.4360534,2.03424879 18.3063765,1.75204388 18.0628324,1.60801281 C17.8192883,1.46398174 17.5112187,1.48730497 17.28559,1.666856 L16.95,2.24 L16.65,2.74 C16.5456147,3.00116754 16.6719848,3.31416956 16.9476276,3.47718367 C17.2232704,3.64019778 17.5658234,3.60451524 17.75441,3.393144 L18.01,2.97 M19.54,3.1 C19.4170051,3.40773666 19.5659092,3.77654799 19.8907005,3.96862874 C20.2154919,4.16070949 20.6191242,4.11866667 20.84134,3.869609 L21.05,3.51 C21.0137598,3.8461492 21.2275754,4.18727232 21.5733356,4.34493377 C21.9190958,4.50259522 22.312458,4.4383361 22.53613,4.187653 L22.87,3.62 C22.8234017,3.97032749 23.0415036,4.33093655 23.4020008,4.49960825 C23.7624979,4.66827995 24.1757305,4.60306376 24.40997,4.340531 L24.62,3.98 C24.6266406,4.35144022 24.8884987,4.70288013 25.2719629,4.85499987 C25.6554271,5.0071196 26.0759651,4.92638526 26.319,4.653991 L26.74,3.95 L27.27,3.06 C27.3444602,2.63117788 27.1522267,2.20483981 26.7864586,1.98759576 C26.4206906,1.77035171 25.9569609,1.80708734 25.62,2.08 L25.28,2.67 C25.2549078,2.32074382 25.0432058,2.01709085 24.7286049,1.87911111 C24.414004,1.74113137 24.0471601,1.79104184 23.77313,2.009107 L23.37,2.67 C23.3846854,2.31312021 23.1951228,1.98358116 22.883674,1.82456215 C22.5722252,1.66554315 22.1951105,1.70574903 21.91618,1.927711 L21.59,2.49 C21.5955547,2.1715982 21.4214832,1.88135729 21.1419692,1.74296843 C20.8624552,1.60457958 20.5267771,1.64244084 20.27799,1.840417 L19.87,2.52 C19.9212118,2.21399755 19.7830326,1.91082301 19.5219901,1.75644237 C19.2609476,1.60206173 18.930538,1.62811278 18.68984,1.822053 L18.4,2.33 L18.01,2.98 C17.8977194,3.26092945 18.0336524,3.59761336 18.3301512,3.77296187 C18.6266499,3.94831038 18.9951216,3.90993002 19.19798,3.682568 L19.54,3.1 M28.97,4.21 L29.51,3.29 C29.5785753,2.83876368 29.3717811,2.39532845 28.9872201,2.16898685 C28.6026592,1.94264526 28.117212,1.97864701 27.76,2.26 L27.28,3.07 L26.76,3.96 C26.5943599,4.37450108 26.7949312,4.8712488 27.2323956,5.12996532 C27.6698599,5.38868184 28.2135152,5.33206989 28.51284,4.99663 L28.97,4.21 M31.33,4.77 C31.2580593,5.25897378 31.5383577,5.74679866 32.0146874,5.96161399 C32.491017,6.17642931 33.0458571,6.06523553 33.37,5.69 L33.84,4.89 L34.59,3.64 C34.6974271,3.09349362 34.4786157,2.56162216 34.0396423,2.30222882 C33.600669,2.04283548 33.0322714,2.10953799 32.61,2.47 L32.11,3.32 C32.1294934,2.83182938 31.8693604,2.38149769 31.4428258,2.16501535 C31.0162913,1.948533 30.5005179,2.00506292 30.12,2.31 L29.53,3.31 L28.99,4.22 C28.7974258,4.68893189 29.0246005,5.2545216 29.5227478,5.54636547 C30.0208951,5.83820934 30.6380334,5.76726766 30.97,5.38 L31.33,4.77 M36.51,5.17 L37.22,3.97 C37.324335,3.40166059 37.0935515,2.85241452 36.6374628,2.58360858 C36.181374,2.31480264 35.5920865,2.38072185 35.15,2.75 L34.61,3.65 L33.87,4.91 C33.6455674,5.4351625 33.8647396,6.05407546 34.3845176,6.36292903 C34.9042955,6.6717826 35.5668938,6.57682018 35.94,6.14 L36.51,5.17 M39.35,5.48 L40.13,4.16 C40.2389834,3.54885471 39.9900961,2.95972538 39.5004883,2.66991267 C39.0108805,2.38009996 38.3781024,2.44734664 37.9,2.84 L37.22,3.98 L36.51,5.17 C36.2660834,5.73843204 36.5031654,6.40903425 37.0662391,6.74335927 C37.6293128,7.07768428 38.3469707,6.97395891 38.75,6.5 L39.35,5.48 M42.4,5.87 L43.28,4.39 C43.4049338,3.7241067 43.1369463,3.07888592 42.6036325,2.76154219 C42.0703187,2.44419846 41.3794639,2.51886843 40.86,2.95 L40.14,4.16 L39.36,5.48 C39.1073943,6.09266491 39.3654631,6.8082902 39.9683854,7.16705387 C40.5713077,7.52581755 41.3397699,7.42102066 41.78,6.92 L42.4,5.87 M45.76,6.23 L46.66,4.71 C46.7947028,3.99192713 46.5054053,3.29622695 45.9300052,2.95451423 C45.3546051,2.61280151 44.6095578,2.69423566 44.05,3.16 L43.32,4.41 L42.44,5.89 C42.1667907,6.55088131 42.4453666,7.32332239 43.0963413,7.70991652 C43.7473159,8.09651065 44.5765222,7.98194792 45.05,7.44 L45.76,6.23 M49.44,6.67 L50.47,4.92 C50.6206378,4.11943721 50.2974925,3.34377632 49.6551684,2.9641208 C49.0128442,2.58446529 48.1819441,2.67801006 47.56,3.2 L46.67,4.71 L45.77,6.24 C45.476498,6.97294658 45.788475,7.82308466 46.5074304,8.2494996 C47.2263858,8.67591454 48.1412816,8.55343896 48.67,7.96 L49.44,6.67 M53.27,7.18 L54.37,5.34 C54.5285193,4.50850274 54.1932088,3.70192927 53.525381,3.30830893 C52.8575533,2.91468859 51.9939354,3.01460897 51.35,3.56 L50.53,4.96 L49.5,6.7 C49.1873917,7.46188287 49.5102067,8.35073265 50.2607039,8.79454826 C51.0112011,9.23836388 51.9657202,9.10488108 52.51,8.48 L53.27,7.18 M57.41,7.87 C57.1870098,8.75846812 57.6431486,9.70109803 58.5082885,10.1396592 C59.3734284,10.5782205 60.4165869,10.3956221 61.02,9.7 L61.87,8.26 C61.5352568,9.26347653 62.0060827,10.3816854 62.9894768,10.918751 C63.9728709,11.4558166 65.1885578,11.2586708 65.88,10.45 L66.95,8.64 L68.32,6.33 C68.5247115,5.24309967 68.0865821,4.18978203 67.2150053,3.67345557 C66.3434286,3.15712911 65.2153864,3.28263871 64.37,3.99 L63.21,5.94 C63.3561483,4.98485434 62.9498217,4.07804338 62.179028,3.63914949 C61.4082342,3.2002556 60.4233176,3.31488558 59.68,3.93 L58.72,5.55 C58.8280645,4.65854777 58.4280034,3.82828046 57.7011721,3.43557461 C56.9743408,3.04286876 56.058964,3.16240689 55.37,3.74 L54.41,5.36 L53.32,7.21 C52.985152,8.0489812 53.3437719,9.02132288 54.1673853,9.5075525 C54.9909987,9.99378212 56.0374281,9.85092734 56.64,9.17 L57.41,7.87 M68.34,6.34 L66.97,8.66 C66.5334757,9.6968945 66.9707883,10.9142537 67.9970239,11.5189549 C69.0232594,12.123656 70.327492,11.9324885 71.06,11.07 L73.57,6.81 C73.7772429,5.68906674 73.3231705,4.60491459 72.4239995,4.07378661 C71.5248284,3.54265864 70.3623088,3.67191206 69.49,4.4 L68.34,6.34 M83.85,10.96 C83.3909925,12.2744322 83.9929286,13.7530808 85.279991,14.472755 C86.5670533,15.1924291 88.1708272,14.947126 89.09,13.89 L90.41,11.66 L92.29,8.47 C92.5527201,7.04458702 91.9744336,5.66649985 90.8305596,4.99207704 C89.6866857,4.31765424 88.2084941,4.48325143 87.1,5.41 L85.67,7.83 C85.9265106,6.49123575 85.3876886,5.19180946 84.3128447,4.55707658 C83.2380009,3.92234369 81.8472905,4.08231361 80.81,4.96 L79.58,7.04 C79.6916838,5.82662592 79.1238738,4.7151916 78.1272858,4.19644925 C77.1306978,3.67770689 75.8888193,3.84716516 74.95,4.63 L72.12,9.42 C71.6346344,10.5829363 72.1242832,11.9453613 73.2720471,12.6255177 C74.419811,13.3056741 75.8810267,13.0993169 76.71,12.14 L77.66,10.53 C77.4168237,11.7502318 78.0788131,13.0058004 79.2657948,13.5756462 C80.4527766,14.1454921 81.8602837,13.8834467 82.68,12.94 L83.85,10.96 M97.34,12.93 C96.948313,14.4601438 97.7301233,16.0883292 99.2207661,16.8468527 C100.711409,17.6053763 102.511016,17.2907623 103.55,16.09 L105.3,13.14 L107.3,9.75 C107.609273,8.08212651 106.933472,6.46864961 105.59496,5.67921432 C104.256448,4.88977904 102.526374,5.08430447 101.23,6.17 L99.63,8.87 C99.8149768,7.35512182 99.1362353,5.94343393 97.9015719,5.27510995 C96.6669084,4.60678597 95.1112272,4.80897965 93.94,5.79 L92.34,8.5 L90.46,11.69 C89.8806987,13.1166626 90.486315,14.7769078 91.8890441,15.607602 C93.2917732,16.4382962 95.0763392,16.1935136 96.1,15.03 L97.34,12.93 M107.31,9.76 L105.31,13.15 C104.627455,14.8106774 105.331995,16.7488823 106.969311,17.7147986 C108.606626,18.680715 110.68745,18.3857048 111.87,17.02 L115.92,10.18 C116.25977,8.3751581 115.531569,6.62631141 114.083705,5.7699527 C112.635841,4.913594 110.76261,5.12378936 109.36,6.3 L107.31,9.76 M132.1,16.38 C131.240055,18.4686328 132.12401,20.9073788 134.18231,22.1248944 C136.24061,23.3424101 138.858835,22.9752567 140.35,21.26 L145.45,12.65 C145.872709,10.3818716 144.955934,8.18628941 143.136867,7.11028402 C141.317801,6.03427863 138.964814,6.29574703 137.2,7.77 L134.69,12 C135.08524,9.88801221 134.231946,7.84281098 132.53768,6.84125247 C130.843413,5.83969396 128.651948,6.08499831 127.01,7.46 L124.97,10.92 C125.234403,9.02584707 124.409256,7.24226972 122.873494,6.38834225 C121.337731,5.53441477 119.388127,5.77515204 117.92,7 L113.58,14.33 C112.839915,16.10838 113.590625,18.1903164 115.346188,19.2281487 C117.10175,20.265981 119.334859,19.9479837 120.6,18.48 L122.13,15.89 C121.566305,17.8305792 122.517723,19.9385963 124.409223,20.9399789 C126.300723,21.9413614 128.613615,21.5615081 129.95,20.03 L132.11,16.39 M165.89,21.29 L169.92,14.47 C170.424976,11.7719373 169.335978,9.15890581 167.172587,7.8776314 C165.009196,6.59635698 162.209783,6.90646613 160.11,8.66 L157.27,13.46 C157.669794,10.9828481 156.62695,8.62022711 154.628997,7.47666205 C152.631044,6.333097 150.072704,6.63451374 148.15,8.24 L142.53,17.73 C141.57029,20.0353514 142.54331,22.7344333 144.819151,24.0799308 C147.094993,25.4254283 149.989991,25.0131525 151.63,23.11 L153.93,19.21 C153.080614,21.6977947 154.232264,24.4833421 156.667956,25.8324161 C159.103647,27.1814902 162.128794,26.709375 163.86,24.71 L165.89,21.29 M178.72,23.24 L183.73,14.77 C183.995572,12.6849255 182.577052,10.3249592 180.222051,8.93388658 C177.867049,7.54281394 175.116484,7.44014908 173.42,8.68 L169.98,14.5 L165.94,21.32 C165.232933,23.4357076 166.60084,26.1098981 169.16668,27.627999 C171.732519,29.1460999 174.735396,29.0579216 176.25,27.42 L178.72,23.24 M191.5,25.21 L197.31,15.38 C197.678805,13.1207132 196.33037,10.6424739 193.975369,9.25140138 C191.620368,7.86032885 188.799717,7.87593709 187,9.29 L183.75,14.79 L178.74,23.26 C177.927807,25.5720583 179.213364,28.3828721 181.775068,29.8960414 C184.336771,31.4092106 187.418199,31.177925 189.05,29.35 L191.5,25.21 M197.33,15.4 L191.52,25.22 C190.599743,27.7066898 191.826953,30.6626812 194.414945,32.1930803 C197.002937,33.7234793 200.18444,33.3745635 201.92,31.37 L210.86,16.24 C211.306294,13.8283526 210.001509,11.2430399 207.631109,9.84224499 C205.260708,8.44145012 202.366927,8.54560811 200.47,10.1 L197.33,15.4 M224.3,17.06 C224.704788,14.5681504 223.404761,12.0033094 221.065673,10.6789565 C218.726585,9.35460347 215.866462,9.56403533 213.95,11.2 L204.55,27.08 C203.558274,29.6773481 204.716694,32.705987 207.282533,34.2240879 C209.848373,35.7421887 213.060737,35.2995618 214.86,33.18 L217.07,29.44 C216.522626,31.312383 217.037034,33.3892992 218.430602,34.9334137 C219.82417,36.4775282 221.899568,37.2701927 223.92,37.03 C223.676407,39.6716996 226.555075,42.1123096 230.36,42.49 C232.347848,42.687751 234.298305,42.282025 235.713121,41.3764659 C237.127938,40.4709068 237.870093,39.1532155 237.75,37.76 L240.07,14.53 C240.46432,13.1876045 239.997736,11.748441 238.789536,10.5804505 C237.581336,9.41245996 235.74864,8.62886432 233.76,8.43 C231.770343,8.23003395 229.816996,8.63474466 228.39987,9.54055627 C226.982744,10.4463679 226.239371,11.7653714 226.36,13.16 L226.31,13.65 L224.3,17.06" id="path126" stroke="#000000" stroke-width="3.12" fill="#000000"></path>
            </g>
            <g id="group28-46" stroke="#000000" stroke-width="0.5" fill="#FFFFFF">
                <g id="shape29-47" transform="translate(214.379623, 22.138368) rotate(-59.400000) translate(-214.379623, -22.138368) translate(200.379623, 15.638368)">
                    <path d="M4.74,12.53 L23.19,12.53 C25.6123348,11.6969075 27.2559381,9.27754808 27.2559381,6.545 C27.2559381,3.81245192 25.6123348,1.39309254 23.19,0.56 L4.74,0.56 C2.01199497,1.04162087 0.00995129473,3.57483609 0.00995129473,6.545 C0.00995129473,9.51516391 2.01199497,12.0483791 4.74,12.53 L4.74,12.53 Z" id="path134"></path>
                </g>
                <g id="shape30-49" transform="translate(227.033123, 24.101368) rotate(-59.400000) translate(-227.033123, -24.101368) translate(213.033123, 17.601368)">
                    <path d="M4.72,12.53 L23.1,12.53 C25.5128554,11.6969075 27.1500267,9.27754808 27.1500267,6.545 C27.1500267,3.81245192 25.5128554,1.39309254 23.1,0.56 L4.72,0.56 C2.00266928,1.04162087 0.00845933584,3.57483609 0.00845933584,6.545 C0.00845933584,9.51516391 2.00266928,12.0483791 4.72,12.53 L4.72,12.53 Z" id="path139"></path>
                </g>
                <g id="shape31-51" transform="translate(232.005140, 25.063172) rotate(-84.300000) translate(-232.005140, -25.063172) translate(214.505140, 17.563172)">
                    <path d="M5.44,0.7 C4.06493548,0.442249734 2.67948105,1.05079985 1.63785801,2.37006138 C0.596234968,3.68932291 -0.00058062539,5.59140524 -3.63898589e-16,7.59 C-0.00058062539,9.58859476 0.596234968,11.4906771 1.63785801,12.8099386 C2.67948105,14.1292002 4.06493548,14.7377503 5.44,14.48 L28.78,14.48 C30.1550645,14.7377503 31.540519,14.1292002 32.582142,12.8099386 C33.623765,11.4906771 34.2205806,9.58859476 34.22,7.59 C34.2205806,5.59140524 33.623765,3.68932291 32.582142,2.37006138 C31.540519,1.05079985 30.1550645,0.442249734 28.78,0.7 L5.44,0.7 L5.44,0.7 Z" id="path144"></path>
                </g>
                <g id="shape32-53" transform="translate(201.043611, 20.991110) rotate(-59.400000) translate(-201.043611, -20.991110) translate(188.043611, 14.491110)">
                    <path d="M4.51,12.53 L22.08,12.53 C24.3842227,11.6881769 25.9470505,9.24919512 25.9470505,6.495 C25.9470505,3.74080488 24.3842227,1.3018231 22.08,0.46 L4.51,0.46 C1.91637727,0.949825505 0.0146575986,3.50288536 0.0146575986,6.495 C0.0146575986,9.48711464 1.91637727,12.0401745 4.51,12.53 L4.51,12.53 Z" id="path149"></path>
                </g>
                <g id="shape33-55" transform="translate(187.841840, 19.538852) rotate(-59.400000) translate(-187.841840, -19.538852) translate(175.841840, 13.038852)">
                    <path d="M4.17,12.53 L20.4,12.53 C22.5300308,11.6969075 23.9752998,9.27754808 23.9752998,6.545 C23.9752998,3.81245192 22.5300308,1.39309254 20.4,0.56 L4.17,0.56 C1.7711833,1.04162087 0.010726212,3.57483609 0.010726212,6.545 C0.010726212,9.51516391 1.7711833,12.0483791 4.17,12.53 L4.17,12.53 Z" id="path154"></path>
                </g>
                <g id="shape34-57" transform="translate(174.735899, 18.122594) rotate(-59.400000) translate(-174.735899, -18.122594) translate(163.735899, 11.622594)">
                    <path d="M3.77,12.53 L18.46,12.53 C20.3877954,11.6969075 21.6958437,9.27754808 21.6958437,6.545 C21.6958437,3.81245192 20.3877954,1.39309254 18.46,0.56 L3.77,0.56 C1.59893907,1.04162087 0.00562865719,3.57483609 0.00562865719,6.545 C0.00562865719,9.51516391 1.59893907,12.0483791 3.77,12.53 L3.77,12.53 Z" id="path159"></path>
                </g>
                <g id="shape35-59" transform="translate(162.087649, 16.836686) rotate(-59.400000) translate(-162.087649, -16.836686) translate(151.587649, 10.836686)">
                    <path d="M4.62,11.53 L16.53,11.53 C19.1077955,10.5894367 20.8002636,8.32154712 20.8002636,5.80789157 C20.8002636,3.29423602 19.1077955,1.04387131 16.53,0.13 L4.62,0.13 C1.96114099,0.514260787 -0.000209486876,2.89586572 -0.000209486876,5.7401721 C-0.000209486876,8.58447848 1.96114099,11.0423501 4.62,11.53 L4.62,11.53 Z" id="path164"></path>
                </g>
                <g id="shape36-61" transform="translate(149.772028, 15.373457) rotate(-59.400000) translate(-149.772028, -15.373457) translate(139.772028, 9.373457)">
                    <path d="M4.28,11.53 L15.32,11.53 C17.7052655,10.656636 19.2704333,8.55658842 19.2704333,6.22954729 C19.2704333,3.90250616 17.7052655,1.81866536 15.32,0.97 L4.28,0.97 C1.82291957,1.33334028 0.0136269793,3.53731617 0.0136269793,6.16704957 C0.0136269793,8.79678296 1.82291957,11.0711144 4.28,11.53 L4.28,11.53 Z" id="path169"></path>
                </g>
                <g id="shape37-63" transform="translate(138.623558, 14.298720) rotate(-59.400000) translate(-138.623558, -14.298720) translate(129.623558, 8.798720)">
                    <path d="M3.89,10.53 L13.9,10.53 C16.0635469,9.73739537 17.4831032,7.83234027 17.4831032,5.72144909 C17.4831032,3.61055791 16.0635469,1.72020183 13.9,0.95 L3.89,0.95 C1.66173945,1.28062204 0.0213750393,3.27977203 0.0213750393,5.6647826 C0.0213750393,8.04979317 1.66173945,10.1127301 3.89,10.53 L3.89,10.53 Z" id="path174"></path>
                </g>
                <g id="shape38-65" transform="translate(128.535108, 13.517911) rotate(-59.400000) translate(-128.535108, -13.517911) translate(120.035108, 8.517911)">
                    <path d="M3.62,9.53 L12.94,9.53 C14.9544839,8.79199399 16.2762336,7.0181872 16.2762336,5.05272723 C16.2762336,3.08726726 14.9544839,1.32714674 12.94,0.61 L3.62,0.61 C1.54528638,0.917889269 0.0179769912,2.77929816 0.0179769912,4.99996687 C0.0179769912,7.22063559 1.54528638,9.14143458 3.62,9.53 L3.62,9.53 Z" id="path179"></path>
                </g>
                <g id="shape39-67" transform="translate(119.261938, 12.812874) rotate(-59.400000) translate(-119.261938, -12.812874) translate(111.761938, 8.312874)">
                    <path d="M3.31,8.53 L11.81,8.53 C13.6528067,7.85750453 14.8626814,6.2361886 14.8626814,4.43919524 C14.8626814,2.64220189 13.6528067,1.03341381 11.81,0.38 L3.31,0.38 C1.40937033,0.654987389 0.00746011873,2.35754538 0.00746011873,4.39078871 C0.00746011873,6.42403204 1.40937033,8.18110471 3.31,8.53 L3.31,8.53 Z" id="path184"></path>
                </g>
                <g id="shape40-69" transform="translate(110.387417, 11.601445) rotate(-59.400000) translate(-110.387417, -11.601445) translate(103.387417, 7.101445)">
                    <path d="M3.09,8.53 L11.04,8.53 C12.7579623,7.89983232 13.8849257,6.38671907 13.8849257,4.71027092 C13.8849257,3.03382276 12.7579623,1.53237881 11.04,0.92 L3.09,0.92 C1.3214771,1.18454809 0.0203857244,2.77204328 0.0203857244,4.66531564 C0.0203857244,6.558588 1.3214771,8.19667899 3.09,8.53 L3.09,8.53 Z" id="path189"></path>
                </g>
                <g id="shape41-71" transform="translate(102.363767, 11.151237) rotate(-59.400000) translate(-102.363767, -11.151237) translate(95.863767, 7.151237)">
                    <path d="M2.86,7.53 L10.21,7.53 C11.7985206,6.94641323 12.8403091,5.5468506 12.8403091,3.9963821 C12.8403091,2.44591359 11.7985206,1.05713827 10.21,0.49 L2.86,0.49 C1.2256134,0.736841719 0.0241181845,2.20482151 0.0241181845,3.95486374 C0.0241181845,5.70490597 1.2256134,7.21960559 2.86,7.53 L2.86,7.53 Z" id="path194"></path>
                </g>
                <g id="shape42-73" transform="translate(94.760947, 10.355408) rotate(-59.400000) translate(-94.760947, -10.355408) translate(88.760947, 6.355408)">
                    <path d="M2.66,7.53 L9.51,7.53 C10.9932494,6.98867109 11.967047,5.68367217 11.967047,4.23727913 C11.967047,2.7908861 10.9932494,1.49597046 9.51,0.97 L2.66,0.97 C1.1302474,1.19143914 0.00194067686,2.56181265 0.00194067686,4.19831905 C0.00194067686,5.83482545 1.1302474,7.24907455 2.66,7.53 L2.66,7.53 Z" id="path199"></path>
                </g>
                <g id="shape43-75" transform="translate(88.032797, 9.716000) rotate(-59.400000) translate(-88.032797, -9.716000) translate(82.532797, 6.216000)">
                    <path d="M2.44,6.53 L8.74,6.53 C10.0976823,6.03041036 10.9878459,4.83381942 10.9878459,3.50836201 C10.9878459,2.1829046 10.0976823,0.995531122 8.74,0.51 L2.44,0.51 C1.04393404,0.722984615 0.0184620724,1.97772064 0.0184620724,3.47291949 C0.0184620724,4.96811834 1.04393404,6.26272964 2.44,6.53 L2.44,6.53 Z" id="path204"></path>
                </g>
                <g id="shape44-77" transform="translate(81.697797, 8.636300) rotate(-59.400000) translate(-81.697797, -8.636300) translate(76.197797, 5.136300)">
                    <path d="M2.3,6.53 L8.21,6.53 C9.4870507,6.0607407 10.3245408,4.93554812 10.3245408,3.68905231 C10.3245408,2.4425565 9.4870507,1.32603586 8.21,0.87 L2.3,0.87 C0.986188597,1.06869691 0.0204649429,2.24884755 0.0204649429,3.65567758 C0.0204649429,5.06250762 0.986188597,6.28021258 2.3,6.53 L2.3,6.53 Z" id="path209"></path>
                </g>
                <g id="shape45-79" transform="translate(75.968647, 8.405991) rotate(-59.400000) translate(-75.968647, -8.405991) translate(70.968647, 5.405991)">
                    <path d="M2.16,5.53 L7.73,5.53 C8.93396181,5.08921159 9.72399186,4.02923434 9.72399186,2.85467646 C9.72399186,1.68011858 8.93396181,0.628321818 7.73,0.2 L2.16,0.2 C0.919757901,0.383303166 0.00645704167,1.49575153 0.00645704167,2.82312832 C0.00645704167,4.1505051 0.919757901,5.29846838 2.16,5.53 L2.16,5.53 Z" id="path214"></path>
                </g>
                <g id="shape46-81" transform="translate(70.185127, 7.564262) rotate(-59.400000) translate(-70.185127, -7.564262) translate(65.685127, 4.564262)">
                    <path d="M1.92,5.53 L6.87,5.53 C7.94153593,5.13869458 8.64496234,4.19581002 8.64496234,3.15081069 C8.64496234,2.10581136 7.94153593,1.17021034 6.87,0.79 L1.92,0.79 C0.8150999,0.950562824 0.000396767532,1.94058023 0.000396767532,3.12267866 C0.000396767532,4.30477709 0.8150999,5.32647376 1.92,5.53 L1.92,5.53 Z" id="path219"></path>
                </g>
                <g id="shape47-83" transform="translate(65.039127, 6.888962) rotate(-59.400000) translate(-65.039127, -6.888962) translate(60.539127, 3.888962)">
                    <path d="M1.86,5.53 L6.65,5.53 C7.68138279,5.14866931 8.35708181,4.23874067 8.35708181,3.23116194 C8.35708181,2.2235832 7.68138279,1.32065115 6.65,0.95 L1.86,0.95 C0.801194694,1.116187 0.025245137,2.06958127 0.025245137,3.20432794 C0.025245137,4.33907461 0.801194694,5.32264154 1.86,5.53 L1.86,5.53 Z" id="path224"></path>
                </g>
                <g id="shape48-85" transform="translate(60.463977, 6.646854) rotate(-59.400000) translate(-60.463977, -6.646854) translate(56.463977, 4.146854)">
                    <path d="M1.66,4.53 L5.94,4.53 C6.86197252,4.19022303 7.46631291,3.37738072 7.46631291,2.47709782 C7.46631291,1.57681492 6.86197252,0.770230306 5.94,0.44 L1.66,0.44 C0.712466891,0.585894381 0.0169780699,1.43801691 0.0169780699,2.45305321 C0.0169780699,3.46808951 0.712466891,4.3472581 1.66,4.53 L1.66,4.53 Z" id="path229"></path>
                </g>
                <g id="shape49-87" transform="translate(56.131977, 6.042554) rotate(-59.400000) translate(-56.131977, -6.042554) translate(52.131977, 3.542554)">
                    <path d="M1.57,4.53 L5.6,4.53 C6.47227035,4.21107182 7.04477107,3.44333172 7.04477107,2.59252004 C7.04477107,1.74170835 6.47227035,0.979896233 5.6,0.67 L1.57,0.67 C0.670997696,0.80172179 0.00853547101,1.60765765 0.00853547101,2.56964079 C0.00853547101,3.53162392 0.670997696,4.36332 1.57,4.53 L1.57,4.53 Z" id="path234"></path>
                </g>
                <g id="shape50-89" transform="translate(52.244827, 5.907246) rotate(-59.400000) translate(-52.244827, -5.907246) translate(48.744827, 3.907246)">
                    <path d="M1.42,3.53 L5.07,3.53 C5.85539533,3.23899646 6.36975817,2.5457718 6.36975817,1.77827081 C6.36975817,1.01076981 5.85539533,0.322871142 5.07,0.04 L1.42,0.04 C0.614316891,0.168050888 0.0244782557,0.894133895 0.0244782557,1.75786751 C0.0244782557,2.62160112 0.614316891,3.37062005 1.42,3.53 L1.42,3.53 Z" id="path239"></path>
                </g>
                <g id="shape51-91" transform="translate(48.436827, 5.342046) rotate(-59.400000) translate(-48.436827, -5.342046) translate(44.936827, 3.342046)">
                    <path d="M1.37,3.53 L4.9,3.53 C5.65829329,3.24892281 6.15487318,2.57956166 6.15487318,1.83850309 C6.15487318,1.09744452 5.65829329,0.433225304 4.9,0.16 L1.37,0.16 C0.592213184,0.283891206 0.0229018531,0.984938292 0.0229018531,1.81880983 C0.0229018531,2.65268137 0.592213184,3.37586546 1.37,3.53 L1.37,3.53 Z" id="path244"></path>
                </g>
                <g id="shape52-93" transform="translate(44.629306, 5.134517) rotate(-59.400000) translate(-44.629306, -5.134517) translate(41.629306, 3.134517)">
                    <path d="M1.23,3.53 L4.4,3.53 C5.08216682,3.27758928 5.52902455,2.67565252 5.52902455,2.00915492 C5.52902455,1.34265732 5.08216682,0.745347417 4.4,0.5 L1.23,0.5 C0.529878228,0.610379983 0.0169795234,1.24099092 0.0169795234,1.99141337 C0.0169795234,2.74183582 0.529878228,3.39239292 1.23,3.53 L1.23,3.53 Z" id="path249"></path>
                </g>
                <g id="shape53-95" transform="translate(41.407306, 4.536917) rotate(-59.400000) translate(-41.407306, -4.536917) translate(38.407306, 2.536917)">
                    <path d="M1.14,3.53 L4.08,3.53 C4.71179297,3.29522946 5.1253631,2.73723729 5.1253631,2.1195876 C5.1253631,1.50193792 4.71179297,0.948228286 4.08,0.72 L1.14,0.72 C0.492509757,0.824611909 0.0191325193,1.40878427 0.0191325193,2.10320932 C0.0191325193,2.79763436 0.492509757,3.40021249 1.14,3.53 L1.14,3.53 Z" id="path254"></path>
                </g>
                <g id="shape54-97" transform="translate(37.912265, 4.900959) rotate(-59.400000) translate(-37.912265, -4.900959) translate(34.912265, 2.900959)">
                    <path d="M2.05,3.53 L4.77,3.53 C5.35768029,3.31529106 5.74344297,2.79812088 5.74344297,2.22496011 C5.74344297,1.65179935 5.35768029,1.13862365 4.77,0.93 L2.05,0.93 C1.44415133,1.01834148 0.997543317,1.56131064 0.997543317,2.20953709 C0.997543317,2.85776354 1.44415133,3.4180995 2.05,3.53 L2.05,3.53 Z" id="path259"></path>
                </g>
                <g id="shape55-99" transform="translate(35.825157, 4.296208) rotate(-59.400000) translate(-35.825157, -4.296208) translate(33.325157, 2.796208)">
                    <path d="M0.97,2.53 L3.49,2.53 C4.03056995,2.33026062 4.38475421,1.85341245 4.38475421,1.32536738 C4.38475421,0.797322321 4.03056995,0.324141744 3.49,0.13 L0.97,0.13 C0.414939161,0.216800598 0.00803795937,0.716478668 0.00803795937,1.31129741 C0.00803795937,1.90611615 0.414939161,2.42161627 0.97,2.53 L0.97,2.53 Z" id="path264"></path>
                </g>
                <g id="shape56-101" transform="translate(33.278157, 3.814408) rotate(-59.400000) translate(-33.278157, -3.814408) translate(30.778157, 2.314408)">
                    <path d="M0.93,2.53 L3.32,2.53 C3.83783113,2.34106901 4.1778194,1.88549925 4.1778194,1.38055862 C4.1778194,0.875617996 3.83783113,0.423568828 3.32,0.24 L0.93,0.24 C0.395881894,0.317173366 0.00187392918,0.795588473 0.00187392918,1.36695573 C0.00187392918,1.93832299 0.395881894,2.4320584 0.93,2.53 L0.93,2.53 Z" id="path269"></path>
                </g>
                <g id="shape57-103" transform="translate(30.400115, 4.307850) rotate(-59.400000) translate(-30.400115, -4.307850) translate(27.900115, 2.807850)">
                    <path d="M1.86,2.53 L4.08,2.53 C4.5607298,2.34106337 4.87635809,1.88549155 4.87635809,1.38055201 C4.87635809,0.875612469 4.5607298,0.423566482 4.08,0.24 L1.86,0.24 C1.36415664,0.317191486 0.998387354,0.795609351 0.998387354,1.36696963 C0.998387354,1.93832992 1.36415664,2.43205618 1.86,2.53 L1.86,2.53 Z" id="path274"></path>
                </g>
                <g id="shape58-105" transform="translate(28.246636, 3.405079) rotate(-59.400000) translate(-28.246636, -3.405079) translate(26.246636, 1.905079)">
                    <path d="M0.77,2.53 L2.74,2.53 C3.16323011,2.35996986 3.44010938,1.95701143 3.44010938,1.51109032 C3.44010938,1.06516921 3.16323011,0.665303189 2.74,0.5 L0.77,0.5 C0.32890489,0.568426689 0.00343404263,0.993932108 0.00343404263,1.50217261 C0.00343404263,2.01041312 0.32890489,2.44954118 0.77,2.53643 L0.77,2.53 Z" id="path279"></path>
                </g>
                <g id="shape59-107" transform="translate(26.084636, 3.022179) rotate(-59.400000) translate(-26.084636, -3.022179) translate(24.084636, 1.522179)">
                    <path d="M0.72,2.53 L2.57,2.53 C2.9704786,2.37199714 3.2332522,1.99216864 3.2332522,1.57129607 C3.2332522,1.15042349 2.9704786,0.773529914 2.57,0.62 L0.72,0.62 C0.306021376,0.68419691 0.000550531054,1.08353384 0.000550531054,1.56052427 C0.000550531054,2.0375147 0.306021376,2.44963665 0.72,2.53116 L0.72,2.53 Z" id="path284"></path>
                </g>
                <g id="shape60-109" transform="translate(23.693595, 3.517221) rotate(-59.400000) translate(-23.693595, -3.517221) translate(21.693595, 2.017221)">
                    <path d="M1.65,2.53 L3.34,2.53 C3.70515036,2.38657097 3.94491624,2.04057123 3.94491624,1.65706154 C3.94491624,1.27355184 3.70515036,0.930230298 3.34,0.79088 L1.65,0.8 C1.27328601,0.858416075 0.995311626,1.22180576 0.995311626,1.65585943 C0.995311626,2.08991311 1.27328601,2.46493705 1.65,2.53912 L1.65,2.53 Z" id="path289"></path>
                </g>
                <g id="shape61-111" transform="translate(21.833595, 3.338921) rotate(-59.400000) translate(-21.833595, -3.338921) translate(19.833595, 1.838921)">
                    <path d="M1.63,2.53 L3.26,2.53 C3.61190309,2.39177114 3.84296964,2.05832206 3.84296964,1.68872421 C3.84296964,1.31912637 3.61190309,0.98825822 3.26,0.85396 L1.63,0.86 C1.26695601,0.916305771 0.999072039,1.26651243 0.999072039,1.6848167 C0.999072039,2.10312098 1.26695601,2.46453954 1.63,2.53604 L1.63,2.53 Z" id="path294"></path>
                </g>
                <g id="shape62-113" transform="translate(20.850486, 2.793071) rotate(-59.400000) translate(-20.850486, -2.793071) translate(19.350486, 1.793071)">
                    <path d="M0.57,1.53 L2.03,1.53 C2.34743765,1.40531131 2.55587404,1.10452144 2.55587404,0.771123005 C2.55587404,0.43772457 2.34743765,0.139262927 2.03,0.01812 L0.57,0.02 C0.242509703,0.0707847527 0.000857706412,0.386692168 0.000857706412,0.764029735 C0.000857706412,1.1413673 0.242509703,1.46738867 0.57,1.53188 L0.57,1.53 Z" id="path299"></path>
                </g>
                <g id="shape63-115" transform="translate(19.240486, 2.562771) rotate(-59.400000) translate(-19.240486, -2.562771) translate(17.740486, 1.562771)">
                    <path d="M0.52,1.53 L1.86,1.53 C2.14978578,1.41617307 2.3400654,1.14158499 2.3400654,0.837228841 C2.3400654,0.532872693 2.14978578,0.260410031 1.86,0.14982 L0.52,0.15 C0.221037312,0.196360427 0.000435396232,0.484749217 0.000435396232,0.829217164 C0.000435396232,1.17368511 0.221037312,1.47130689 0.52,1.53018 L0.52,1.53 Z" id="path304"></path>
                </g>
                <g id="shape64-117" transform="translate(17.561966, 2.675342) rotate(-59.400000) translate(-17.561966, -2.675342) translate(15.561966, 1.675342)">
                    <path d="M1.48,1.53 L2.73,1.53 C2.99940168,1.42418145 3.1762971,1.16890915 3.1762971,0.885962478 C3.1762971,0.603015807 2.99940168,0.34971939 2.73,0.24691 L1.48,0.25 C1.20206482,0.293094842 0.996977161,0.561197932 0.996977161,0.881436902 C0.996977161,1.20167587 1.20206482,1.4783626 1.48,1.53309 L1.48,1.53 Z" id="path309"></path>
                </g>
                <g id="shape65-119" transform="translate(15.912445, 2.875913) rotate(-59.400000) translate(-15.912445, -2.875913) translate(14.412445, 1.875913)">
                    <path d="M1.44,1.53 L2.58,1.53 C2.82599359,1.43337172 2.98751758,1.20027755 2.98751758,0.94191413 C2.98751758,0.683550712 2.82599359,0.452260669 2.58,0.35838 L1.44,0.36 C1.18621703,0.399359943 0.998954854,0.644168696 0.998954854,0.936580461 C0.998954854,1.22899223 1.18621703,1.48163847 1.44,1.53162 L1.44,1.53 Z" id="path314"></path>
                </g>
                <g id="shape66-121" transform="translate(-0.000000, 0.603200)">
                    <path d="M14.57,2.45 C14.7657269,2.52172589 14.9765309,2.47804607 15.099435,2.340298 L15.59,1.52 C15.613274,1.37558395 15.5787238,1.22876967 15.4940974,1.11248064 C15.4094709,0.996191602 15.28185,0.920159241 15.139854,0.901434 L0,0.12 L14.54,2.53 L14.57,2.45 L14.57,2.45 Z" id="path319"></path>
                </g>
            </g>
        </g>
        <g id="group67-123" transform="translate(198.574000, 6.132000)">
            <g id="shape68-124" transform="translate(1.000000, 1.000000)">
                <path d="M80.12,73.73 C79.8032172,73.6353035 79.4830573,73.5485936 79.16,73.47 C75.8179701,72.7485095 72.3119492,72.828508 69.08,73.7 C72.2900207,72.7452012 75.8283338,72.6644659 79.16,73.47 C79.48253,73.5427103 79.8026603,73.6227428 80.12,73.71 L80.12,73.73 L80.12,73.73 Z M88.02,85.44 C86.7651793,84.9178217 85.6091622,84.2504998 84.59,83.46 C81.2602954,80.9388809 79.5974968,77.3194112 80.12,73.73 C80.163065,73.714895 80.2132008,73.7179614 80.254104,73.7382022 C79.7026083,77.3069537 81.3135933,80.9190491 84.59,83.46 C85.6154496,84.2372112 86.7747409,84.8909976 88.03,85.4 L88.02,85.44 L88.02,85.44 Z M88.1,85.48 L88.02,85.44 C88.0601283,85.4156442 88.117243,85.4191375 88.154104,85.4482022 L88.1,85.48 L88.1,85.48 Z M129.92,44.87 C134.115553,43.4002176 137.292233,40.5556928 138.664158,37.0401363 C140.036082,33.5245798 139.475102,29.6663721 137.12,26.42 C137.038239,32.2236203 132.697285,37.3488481 126.05,39.49 C125.346217,38.6768842 124.602268,37.8862294 123.82,37.12 C123.831492,36.8035158 123.838159,36.4868254 123.84,36.17 C125.256731,35.1240545 126.359677,33.8333012 127.07,32.39 C126.268641,32.7474506 125.428935,33.0485405 124.56,33.29 C129.144802,20.9253656 122.71429,7.40364555 108.89,0.34 C108.262331,0.0986820882 107.543615,0.0807586868 106.913743,0.290715974 C106.283871,0.500673262 105.802458,0.918639907 105.59,1.44 C105.920139,6.09194826 105.32945,10.7364541 103.84,15.2 C103.675731,15.2578044 103.508972,15.311167 103.34,15.36 C86.7161673,16.0259088 70.5265695,20.8607802 56.26,29.42 L50.16,39.74 L12.53,56.43 C10.9370179,55.0369746 8.47787644,54.5352383 6.31057166,55.1610558 C4.14326687,55.7868732 2.69984288,57.4154902 2.66,59.28 C4.45615009,62.1592551 3.81392329,65.5871406 1.06,67.82 C0.721598203,74.001652 1.80289332,80.2114722 4.25,86.14 C4.93108928,86.0581193 5.61111513,85.9714493 6.29,85.88 L6.82,88.54 C14.054941,87.5351661 21.1811977,86.1726953 28.16,84.46 L26.69,81.58 C29.071827,80.8850552 31.423048,80.1279954 33.74,79.31 C37.1483411,77.5391553 41.7538187,78.2259251 44.2838221,80.882297 C46.8138255,83.5386689 46.4059376,87.25915 43.35,89.4 C41.0502382,92.2572968 36.8811331,93.7609722 32.62,93.27 C30.1169823,91.2277554 26.5224741,90.3262995 23.09,90.88 L22.64,88.66 C17.8834465,89.3198521 13.1982846,90.2148082 8.61,91.34 L9.97,94.01 L9.14,94.21 C8.06124033,95.1060861 8.07236568,96.5440461 9.16527357,97.4766252 C10.2581814,98.4092042 12.0474635,98.5075333 13.23,97.7 C13.4355861,97.6688568 13.6423273,97.6421805 13.85,97.62 C12.5046675,99.4842656 12.6610382,101.837645 14.25,103.64 C16.3559322,105.535219 17.13687,108.138066 16.3197992,110.538592 C15.5027284,112.939117 13.2012667,114.803517 10.22,115.48 C14.1520063,116.337765 18.2668868,115.151529 20.5317437,112.507337 C22.7966006,109.863144 22.7320571,106.320661 20.37,103.63 C19.6523191,102.880086 19.3451051,101.933413 19.5212756,101.014674 C19.6974461,100.095936 20.3412935,99.2870474 21.3,98.78 C21.5137751,98.8781478 21.7238767,98.9815312 21.93,99.09 C21.266026,101.88681 22.168625,104.810207 24.4,107.09 C26.1745395,112.058622 23.3986286,117.251454 17.75,119.53 C21.7916253,119.575965 25.5598784,118.053668 27.8705674,115.441498 C30.1812564,112.829329 30.7507194,109.447959 29.4,106.36 C28.3945238,104.952705 27.9311299,103.346506 28.07,101.75 C28.4474376,101.818793 28.8277416,101.875505 29.21,101.92 C29.8445755,104.516617 31.0430269,107.015083 32.75,109.3 C34.7190838,111.305961 34.547208,114.137616 32.35,115.89 C35.5045494,115.744346 38.2212863,114.146088 39.3235506,111.787456 C40.4258149,109.428825 39.715401,106.733941 37.5,104.87 C36.7241679,103.799203 36.1890951,102.630848 35.92,101.42 C37.1913193,101.06866 38.3897682,100.573794 39.48,99.95 L50.78,95.68 C53.9459157,93.2699991 55.9756803,90.0491574 56.54,86.54 L56.32,86.52 C56.5134652,84.9482884 56.5435687,83.362839 56.41,81.78 C56.3790114,81.639696 56.345675,81.4996832 56.31,81.36 C56.3838407,81.4924299 56.4178333,81.636224 56.4091673,81.779493 C56.7526659,83.3583903 56.7967802,84.9635437 56.54,86.54 L78.95,88.34 C82.3838766,88.3213206 85.6563816,87.2933272 88.15,85.45 C98.9316602,91.1232304 112.838949,90.7122966 122.67,84.43 C130.584033,77.5955992 134.747135,68.4612022 134.26,59 C137.71603,62.0794024 140.111675,65.8213021 141.2,69.84 C143.677924,62.3097742 140.084691,54.2051254 132.16,49.45 C131.54166,47.8872461 130.793279,46.357075 129.92,44.87 L129.92,44.87 Z M55.89,79.09 C55.3571273,77.1289534 54.5064648,75.2258904 53.36,73.43 C52.871353,72.7107322 52.3269148,72.015989 51.73,71.35 C50.1364271,70.7497564 48.4122947,70.4226483 46.67,70.39 C48.4236654,70.2996439 50.1865097,70.615429 51.75,71.3 C51.7868366,71.3197938 51.8235042,71.3397943 51.86,71.36 C52.4037687,72.0295594 52.9044485,72.7204975 53.36,73.43 C54.5644659,75.2063665 55.4182503,77.1164139 55.89,79.09 C56.0931049,79.8342501 56.2499677,80.5851892 56.36,81.34 C56.2845596,81.280763 56.240998,81.2003592 56.239048,81.116753 C56.1676655,80.4376297 56.0511495,79.7610771 55.89,79.09 L55.89,79.09 Z" id="path327" fill="#FFFFFF"></path>
                <path d="M80.12,73.73 C79.8032172,73.6353035 79.4830573,73.5485936 79.16,73.47 C75.8179701,72.7485095 72.3119492,72.828508 69.08,73.7 C72.2900207,72.7452012 75.8283338,72.6644659 79.16,73.47 C79.48253,73.5427103 79.8026603,73.6227428 80.12,73.71 M88.02,85.44 C86.7651793,84.9178217 85.6091622,84.2504998 84.59,83.46 C81.2602954,80.9388809 79.5974968,77.3194112 80.12,73.73 C80.163065,73.714895 80.2132008,73.7179614 80.254104,73.7382022 C79.7026083,77.3069537 81.3135933,80.9190491 84.59,83.46 C85.6154496,84.2372112 86.7747409,84.8909976 88.03,85.4 M88.1,85.48 L88.02,85.44 C88.0601283,85.4156442 88.117243,85.4191375 88.154104,85.4482022 M129.92,44.87 C134.115553,43.4002176 137.292233,40.5556928 138.664158,37.0401363 C140.036082,33.5245798 139.475102,29.6663721 137.12,26.42 C137.038239,32.2236203 132.697285,37.3488481 126.05,39.49 C125.346217,38.6768842 124.602268,37.8862294 123.82,37.12 C123.831492,36.8035158 123.838159,36.4868254 123.84,36.17 C125.256731,35.1240545 126.359677,33.8333012 127.07,32.39 C126.268641,32.7474506 125.428935,33.0485405 124.56,33.29 C129.144802,20.9253656 122.71429,7.40364555 108.89,0.34 C108.262331,0.0986820882 107.543615,0.0807586868 106.913743,0.290715974 C106.283871,0.500673262 105.802458,0.918639907 105.59,1.44 C105.920139,6.09194826 105.32945,10.7364541 103.84,15.2 C103.675731,15.2578044 103.508972,15.311167 103.34,15.36 C86.7161673,16.0259088 70.5265695,20.8607802 56.26,29.42 L50.16,39.74 L12.53,56.43 C10.9370179,55.0369746 8.47787644,54.5352383 6.31057166,55.1610558 C4.14326687,55.7868732 2.69984288,57.4154902 2.66,59.28 C4.45615009,62.1592551 3.81392329,65.5871406 1.06,67.82 C0.721598203,74.001652 1.80289332,80.2114722 4.25,86.14 C4.93108928,86.0581193 5.61111513,85.9714493 6.29,85.88 L6.82,88.54 C14.054941,87.5351661 21.1811977,86.1726953 28.16,84.46 L26.69,81.58 C29.071827,80.8850552 31.423048,80.1279954 33.74,79.31 C37.1483411,77.5391553 41.7538187,78.2259251 44.2838221,80.882297 C46.8138255,83.5386689 46.4059376,87.25915 43.35,89.4 C41.0502382,92.2572968 36.8811331,93.7609722 32.62,93.27 C30.1169823,91.2277554 26.5224741,90.3262995 23.09,90.88 L22.64,88.66 C17.8834465,89.3198521 13.1982846,90.2148082 8.61,91.34 L9.97,94.01 L9.14,94.21 C8.06124033,95.1060861 8.07236568,96.5440461 9.16527357,97.4766252 C10.2581814,98.4092042 12.0474635,98.5075333 13.23,97.7 C13.4355861,97.6688568 13.6423273,97.6421805 13.85,97.62 C12.5046675,99.4842656 12.6610382,101.837645 14.25,103.64 C16.3559322,105.535219 17.13687,108.138066 16.3197992,110.538592 C15.5027284,112.939117 13.2012667,114.803517 10.22,115.48 C14.1520063,116.337765 18.2668868,115.151529 20.5317437,112.507337 C22.7966006,109.863144 22.7320571,106.320661 20.37,103.63 C19.6523191,102.880086 19.3451051,101.933413 19.5212756,101.014674 C19.6974461,100.095936 20.3412935,99.2870474 21.3,98.78 C21.5137751,98.8781478 21.7238767,98.9815312 21.93,99.09 C21.266026,101.88681 22.168625,104.810207 24.4,107.09 C26.1745395,112.058622 23.3986286,117.251454 17.75,119.53 C21.7916253,119.575965 25.5598784,118.053668 27.8705674,115.441498 C30.1812564,112.829329 30.7507194,109.447959 29.4,106.36 C28.3945238,104.952705 27.9311299,103.346506 28.07,101.75 C28.4474376,101.818793 28.8277416,101.875505 29.21,101.92 C29.8445755,104.516617 31.0430269,107.015083 32.75,109.3 C34.7190838,111.305961 34.547208,114.137616 32.35,115.89 C35.5045494,115.744346 38.2212863,114.146088 39.3235506,111.787456 C40.4258149,109.428825 39.715401,106.733941 37.5,104.87 C36.7241679,103.799203 36.1890951,102.630848 35.92,101.42 C37.1913193,101.06866 38.3897682,100.573794 39.48,99.95 L50.78,95.68 C53.9459157,93.2699991 55.9756803,90.0491574 56.54,86.54 L56.32,86.52 C56.5134652,84.9482884 56.5435687,83.362839 56.41,81.78 C56.3790114,81.639696 56.345675,81.4996832 56.31,81.36 C56.3838407,81.4924299 56.4178333,81.636224 56.4091673,81.779493 C56.7526659,83.3583903 56.7967802,84.9635437 56.54,86.54 L78.95,88.34 C82.3838766,88.3213206 85.6563816,87.2933272 88.15,85.45 C98.9316602,91.1232304 112.838949,90.7122966 122.67,84.43 C130.584033,77.5955992 134.747135,68.4612022 134.26,59 C137.71603,62.0794024 140.111675,65.8213021 141.2,69.84 C143.677924,62.3097742 140.084691,54.2051254 132.16,49.45 C131.54166,47.8872461 130.793279,46.357075 129.92,44.87 M55.89,79.09 C55.3571273,77.1289534 54.5064648,75.2258904 53.36,73.43 C52.871353,72.7107322 52.3269148,72.015989 51.73,71.35 C50.1364271,70.7497564 48.4122947,70.4226483 46.67,70.39 C48.4236654,70.2996439 50.1865097,70.615429 51.75,71.3 C51.7868366,71.3197938 51.8235042,71.3397943 51.86,71.36 C52.4037687,72.0295594 52.9044485,72.7204975 53.36,73.43 C54.5644659,75.2063665 55.4182503,77.1164139 55.89,79.09 C56.0931049,79.8342501 56.2499677,80.5851892 56.36,81.34 C56.2845596,81.280763 56.240998,81.2003592 56.239048,81.116753 C56.1676655,80.4376297 56.0511495,79.7610771 55.89,79.09" id="path329" stroke="#000000" stroke-width="3.12" fill="#000000"></path>
            </g>
            <g id="group69-127" stroke="#000000">
                <g id="shape70-128" transform="translate(26.803337, 107.466129) rotate(3.500000) translate(-26.803337, -107.466129) translate(11.803337, 93.466129)" stroke-width="1.2" fill="#FFFFFF">
                    <path d="M7.06,3.02 C4.76533829,3.47218339 2.91590405,4.83025437 2.15292983,6.62334497 C1.38995561,8.41643558 1.81850797,10.3976255 3.29,11.88 C5.51173148,13.6418687 6.45385074,16.1930367 5.78666635,18.6407314 C5.11948196,21.0884262 2.93587829,23.0918833 -3.55271368e-15,23.95 C3.97857396,24.5683358 8.01624611,23.1332818 10.1165894,20.3544003 C12.2169327,17.5755189 11.934923,14.0416041 9.41,11.5 C8.54025838,10.6987945 8.19164915,9.61606622 8.46901189,8.57743128 C8.74637462,7.53879635 9.6173486,6.66543537 10.82,6.22 C10.031379,9.24834527 11.0773066,12.3972551 13.64,14.71 C15.7123575,19.5605583 13.2580627,24.9115888 7.76,27.53 C11.79723,27.3284829 15.4653787,25.5780829 17.6115145,22.8289662 C19.7576503,20.0798495 20.1182597,16.6695668 18.58,13.67 C16.9040512,11.6023185 16.5128514,9.02999492 17.52,6.7 C18.0763834,10.18103 19.6489581,13.5077621 22.11,16.41 C24.1954285,18.2922986 24.1954285,21.1277014 22.11,23.01 C25.2536374,22.6745691 27.8721843,20.9124915 28.8294177,18.4883566 C29.7866512,16.0642217 28.9100566,13.4149125 26.58,11.69 C23.7580089,8.25948602 23.7580089,3.81051398 26.58,0.38 C20.3259354,2.19904183 13.7122301,3.09351837 7.06,3.02 L7.06,3.02 Z" id="path337"></path>
                </g>
                <g id="group71-130" transform="translate(17.783771, 87.710814) rotate(3.500000) translate(-17.783771, -87.710814) translate(5.283771, 75.710814)" stroke-width="1.2" fill="#FFFFFF">
                    <g id="shape72-131" transform="translate(12.020550, 17.595523) rotate(184.800000) translate(-12.020550, -17.595523) translate(4.520550, 12.595523)">
                        <path d="M0,5.56 L1.41,9.53 C6.02285829,8.18963958 10.531038,6.62680395 14.91,4.85 L12,0.74 L0,5.28 L0,5.56 L0,5.56 Z" id="path345"></path>
                    </g>
                    <g id="shape73-133" transform="translate(12.529809, 8.704863) rotate(4.800000) translate(-12.529809, -8.704863) translate(1.029809, 1.704863)">
                        <path d="M0,7.49 L2.15,13.53 C9.16161775,11.4903496 16.014038,9.11270668 22.67,6.41 L18.25,0.15 L0,7.06 L0,7.49 L0,7.49 Z" id="path350"></path>
                    </g>
                </g>
                <g id="shape74-135" transform="translate(69.425378, 56.721426) rotate(3.500000) translate(-69.425378, -56.721426) translate(2.925378, 7.721426)" stroke-width="1.2" fill="#FFFFFF">
                    <path d="M98.89,6.58 C82.3355077,8.25913556 66.469019,14.0740971 52.75,23.49 L47.29,34.16 L10.75,53.12 C9.07471013,51.8250092 6.58749178,51.4736133 4.46103959,52.2314915 C2.3345874,52.9893696 0.993466555,54.7052045 1.07,56.57 C3.03907079,59.3328674 2.60962681,62.7925002 0,65.19 C0.0389917149,71.3802929 1.49653302,77.5121353 4.3,83.28 C14.3998626,81.4311509 24.1555831,78.5333455 33.32,74.66 C36.6131787,72.6944719 41.2405004,73.101599 43.923694,75.5929482 C46.6068876,78.0842974 46.4350844,81.8141258 43.53,84.14 C41.4120557,87.1387688 37.3386249,88.8995171 33.05,88.67 C30.1207249,86.5613642 25.9488643,85.9753633 22.3,87.16 L9.67,91.04 C8.64867929,92.0011477 8.74931203,93.4360697 9.8985826,94.2993589 C11.0478532,95.1626482 12.8402812,95.1497231 13.97,94.27 C17.8622488,93.4260309 22.0223805,94.2414469 24.99,96.43 C30.0321075,98.3397585 35.9949142,97.7520406 40.31,94.92 L51.32,89.96 C55.9466738,85.9739413 57.6751136,80.3536752 55.89,75.1 C55.3114933,71.6236857 53.5465929,68.3430474 50.79,65.62 C49.1625604,65.1178314 47.4213768,64.8963502 45.68,64.97 C47.4683654,64.7708459 49.2903074,64.9968501 50.92,65.62 C53.546546,68.484454 55.2969153,71.8036475 56.03,75.31 C56.3114468,77.0234859 56.39847,78.7539084 56.29,80.48 L79,80.91 C82.4229973,80.6821711 85.6239664,79.4586895 88,77.47 C82.3795687,75.6336212 78.8606688,71.1150796 79.27,66.26 C75.6177272,65.4145221 71.7086386,65.6450944 68.25,66.91 C71.7781581,65.7220403 75.6946258,65.493726 79.4,66.26 C78.9542872,71.0622585 82.3549401,75.5630045 87.87,77.47 C99.023622,82.4819477 112.923484,81.2219834 122.4,74.34 C136.635174,60.4401883 135.887973,40.2486695 120.65,27.05 C120.495484,19.7763915 117.796339,12.6837732 112.86,6.58 C111.666298,3.2455533 108.030838,0.847103736 103.72,0.55 C103.736201,3.14832857 101.843744,5.51096094 98.89,6.58 L98.89,6.58 Z" id="path355"></path>
                </g>
                <g id="group75-137" transform="translate(77.176996, 49.301395) rotate(3.500000) translate(-77.176996, -49.301395) translate(59.176996, 38.301395)" stroke-width="1.2">
                    <g id="shape76-138" transform="translate(23.576700, 14.539000) rotate(180.000000) translate(-23.576700, -14.539000) translate(12.076700, 7.539000)" fill="#FFFFFF">
                        <path d="M7.17392812e-16,13.53 C4.39871896,12.7860304 8.06373594,10.3613658 9.81,7.04 C11.1154167,5.34272561 13.2721742,4.18074402 15.7253798,3.85301109 C18.1785853,3.52527816 20.6887296,4.06379084 22.61,5.33 C21.4119669,2.16632228 17.7736777,0.00341357819 13.65,0.00341357819 C9.52632227,0.00341357819 5.88803306,2.16632228 4.69,5.33 C4.24919794,8.39259007 2.60696531,11.263871 -5.32907052e-15,13.53 L7.17392812e-16,13.53 Z" id="path363"></path>
                    </g>
                    <g id="shape77-140" transform="translate(9.855900, 4.371550)" fill="#FFFFFF">
                        <path d="M1,7.42 C0.924679804,4.84095531 2.59767245,2.43155006 5.37149171,1.12427891 C8.14531097,-0.182992232 11.584689,-0.182992232 14.3585083,1.12427891 C17.1323275,2.43155006 18.8053202,4.84095531 18.73,7.42 C18.8053202,9.99904469 17.1323275,12.4084499 14.3585083,13.7157211 C11.584689,15.0229922 8.14531097,15.0229922 5.37149171,13.7157211 C2.59767245,12.4084499 0.924679804,9.99904469 1,7.42 L1,7.42 Z" id="path368"></path>
                    </g>
                    <g id="shape78-142" transform="translate(15.289600, 7.816680)" fill="#000000">
                        <path d="M0,3.98 C6.84804934e-16,2.01613271 1.98561713,0.424103721 4.435,0.424103721 C6.88438287,0.424103721 8.87,2.01613271 8.87,3.98 C8.87,5.94386729 6.88438287,7.53589628 4.435,7.53589628 C1.98561713,7.53589628 2.99962889e-16,5.94386729 0,3.98 L0,3.98 Z" id="path373"></path>
                    </g>
                    <g id="shape79-144" transform="translate(0.000000, 0.639030)" fill="#FFFFFF">
                        <path d="M0,17.53 C5.54302254,16.5921995 10.1609705,13.5359847 12.36,9.35 C14.0035579,7.21236896 16.7189658,5.74840272 19.8081217,5.33447116 C22.8972776,4.9205396 26.058838,5.59702125 28.48,7.19 C26.9671453,3.20857922 22.3860764,0.487912383 17.195,0.487912383 C12.0039236,0.487912383 7.42285466,3.20857922 5.91,7.19 C5.35665509,11.0517808 3.28706897,14.6726811 1.26960664e-14,17.53 L0,17.53 Z" id="path378"></path>
                    </g>
                </g>
                <g id="shape80-146" transform="translate(114.165121, 19.898089) rotate(3.500000) translate(-114.165121, -19.898089) translate(100.165121, 1.398089)" stroke-width="1.2" fill="#FFFFFF">
                    <path d="M12.63,36 C17.6648987,37.4231205 23.2615227,35.9136405 26.2,32.34 C30.1359783,19.6749261 22.899996,6.47748112 8.6,0.24 C7.95998723,0.0362867394 7.2420974,0.060543522 6.62573058,0.306708598 C6.00936376,0.552873675 5.5527512,0.9976906 5.37,1.53 C6.47279423,9.81895733 4.61022826,18.1883646 6.17821766e-15,25.66 C-0.0324192401,27.8667432 1.54183733,29.886323 4.03,30.83 C8.60953486,24.6699361 10.6756879,17.5170611 9.94,10.37 C15.9797728,14.9101793 19.0995848,21.4150059 18.41,28.03 C17.4130812,24.6416595 15.3272808,21.5215778 12.36,18.98 C11.3088405,23.5358474 8.37442546,27.6750283 4.03,30.73 L12.63,36 L12.63,36 Z" id="path383"></path>
                </g>
                <g id="shape81-148" transform="translate(11.373323, 63.109910) rotate(93.500000) translate(-11.373323, -63.109910) translate(7.373323, 59.609910)" stroke-width="1.2" fill="#000000">
                    <path d="M1,3.67 C1.06555646,2.12737455 2.58856787,0.904975951 4.445,0.904975951 C6.30143213,0.904975951 7.82444354,2.12737455 7.89,3.67 C7.93451552,4.71750589 7.28781207,5.70167769 6.20360238,6.23640813 C5.11939269,6.77113856 3.77060731,6.77113856 2.68639762,6.23640813 C1.60218793,5.70167769 0.955484478,4.71750589 1,3.67 L1,3.67 Z" id="path388"></path>
                </g>
                <g id="shape82-150" transform="translate(116.251229, 43.166666) rotate(3.500000) translate(-116.251229, -43.166666) translate(87.751229, 16.666666)" stroke-width="2.16" fill="#FFFFFF">
                    <path d="M15.51,0.4 C12.9969341,5.70019607 15.0240634,11.6950598 20.5320029,15.2516541 C26.0399424,18.8082484 33.7770962,19.1183909 39.7,16.02 C37.9597239,20.1950732 33.1890571,23.0776327 27.7038471,23.2683841 C22.218637,23.4591354 17.1546018,20.9185833 14.97,16.88 C18.9665201,22.914417 27.6345126,25.9330113 35.8627318,24.1558117 C44.0909509,22.378612 49.6948567,16.2774536 49.37,9.45 C53.3540443,14.2937471 52.8991451,20.6600582 48.2512212,25.1073026 C43.6032972,29.5545469 35.8651396,31.0275477 29.22,28.73 C32.2999282,29.4274367 35.4426869,29.9322842 38.62,30.24 C50.9823632,32.6826343 58.7078953,42.5396526 56.09,52.53 C52.9133116,43.1230201 42.681324,36.3457811 30.56,35.62 C23.2875393,36.6583573 15.8134352,35.0810387 10.1209451,31.3065865 C4.42845494,27.5321343 1.09312983,21.9421724 1,16.02 C0.894258946,8.78665937 6.8360479,2.3903297 15.51,0.4 L15.51,0.4 Z" id="path393"></path>
                </g>
            </g>
        </g>
    </g>
</svg>